<svg xmlns="http://www.w3.org/2000/svg"
    xmlns:xlink="http://www.w3.org/1999/xlink" width="500" zoomAndPan="magnify" viewBox="0 0 375 374.999991" height="500" preserveAspectRatio="xMidYMid meet" version="1.0">
    <defs>
        <clipPath id="id1">
            <path d="M 0 87 L 375 87 L 375 287.957031 L 0 287.957031 Z M 0 87 " clip-rule="nonzero"/>
        </clipPath>
    </defs>
    <g clip-path="url(#id1)">
        <path fill="rgb(0%, 0%, 0%)" d="M 361.667969 87.015625 L 13.332031 87.015625 C 6 87.015625 0 93.015625 0 100.34375 L 0 274.566406 C 0 281.898438 6 287.898438 13.332031 287.898438 L 361.667969 287.898438 C 369 287.898438 375 281.898438 375 274.566406 L 375 100.34375 C 375 93.015625 369 87.015625 361.667969 87.015625 Z M 292.777344 124.628906 L 321.109375 124.628906 L 321.109375 152.949219 L 292.777344 152.949219 Z M 301.667969 165.722656 L 301.667969 194.042969 L 273.335938 194.042969 L 273.335938 165.722656 Z M 252.777344 124.628906 L 281.109375 124.628906 L 281.109375 152.949219 L 252.777344 152.949219 Z M 166.941406 205.707031 L 195.273438 205.707031 L 195.273438 234.027344 L 166.941406 234.027344 Z M 153.332031 194.042969 L 153.332031 165.722656 L 181.667969 165.722656 L 181.667969 194.042969 Z M 193.332031 194.042969 L 193.332031 165.722656 L 221.667969 165.722656 L 221.667969 194.042969 Z M 206.945312 205.707031 L 235.277344 205.707031 L 235.277344 234.027344 L 206.945312 234.027344 Z M 233.332031 194.042969 L 233.332031 165.722656 L 261.667969 165.722656 L 261.667969 194.042969 Z M 212.777344 124.628906 L 241.109375 124.628906 L 241.109375 152.949219 L 212.777344 152.949219 Z M 172.777344 124.628906 L 201.109375 124.628906 L 201.109375 152.949219 L 172.777344 152.949219 Z M 132.777344 124.628906 L 161.109375 124.628906 L 161.109375 152.949219 L 132.777344 152.949219 Z M 141.667969 165.722656 L 141.667969 194.042969 L 113.332031 194.042969 L 113.332031 165.722656 Z M 92.777344 124.628906 L 121.109375 124.628906 L 121.109375 152.949219 L 92.777344 152.949219 Z M 101.664062 165.722656 L 101.664062 194.042969 L 73.332031 194.042969 L 73.332031 165.722656 Z M 52.777344 124.628906 L 81.113281 124.628906 L 81.113281 152.949219 L 52.777344 152.949219 Z M 12.777344 124.628906 L 41.109375 124.628906 L 41.109375 152.949219 L 12.777344 152.949219 Z M 12.777344 165.722656 L 60.554688 165.722656 L 60.554688 194.042969 L 12.777344 194.042969 Z M 12.777344 205.707031 L 73.332031 205.707031 L 73.332031 234.027344 L 12.777344 234.027344 Z M 41.109375 273.457031 L 12.777344 273.457031 L 12.777344 245.136719 L 41.109375 245.136719 Z M 81.113281 273.457031 L 52.777344 273.457031 L 52.777344 245.136719 L 81.113281 245.136719 Z M 86.945312 205.707031 L 115.277344 205.707031 L 115.277344 234.027344 L 86.945312 234.027344 Z M 121.109375 273.457031 L 92.777344 273.457031 L 92.777344 245.136719 L 121.109375 245.136719 Z M 126.941406 205.707031 L 155.277344 205.707031 L 155.277344 234.027344 L 126.941406 234.027344 Z M 275.277344 273.457031 L 132.777344 273.457031 L 132.777344 245.136719 L 275.277344 245.136719 Z M 275.277344 234.027344 L 246.941406 234.027344 L 246.941406 205.707031 L 275.277344 205.707031 Z M 321.109375 273.457031 L 287.5 273.457031 L 287.5 245.136719 L 321.109375 245.136719 Z M 361.109375 273.457031 L 332.777344 273.457031 L 332.777344 245.136719 L 361.109375 245.136719 Z M 361.109375 234.027344 L 286.945312 234.027344 L 286.945312 205.707031 L 361.109375 205.707031 Z M 361.109375 194.042969 L 315.003906 194.042969 L 315.003906 165.722656 L 361.109375 165.722656 Z M 361.109375 152.949219 L 332.777344 152.949219 L 332.777344 124.628906 L 361.109375 124.628906 Z M 361.109375 152.949219 " fill-opacity="1" fill-rule="nonzero"/>
    </g>
</svg>