<svg xmlns="http://www.w3.org/2000/svg"
    xmlns:xlink="http://www.w3.org/1999/xlink" width="300" zoomAndPan="magnify" viewBox="0 0 375 264.749989" preserveAspectRatio="xMidYMid meet" version="1.0">
    <defs>
        <g/>
        <clipPath id="id1">
            <path d="M 0.175781 9 L 14 9 L 14 23 L 0.175781 23 Z M 0.175781 9 " clip-rule="nonzero"/>
        </clipPath>
        <clipPath id="id2">
            <path d="M 0.175781 43 L 20 43 L 20 57 L 0.175781 57 Z M 0.175781 43 " clip-rule="nonzero"/>
        </clipPath>
        <clipPath id="id3">
            <path d="M 0.175781 71 L 7 71 L 7 93 L 0.175781 93 Z M 0.175781 71 " clip-rule="nonzero"/>
        </clipPath>
        <clipPath id="id4">
            <path d="M 0.175781 123 L 1 123 L 1 124 L 0.175781 124 Z M 0.175781 123 " clip-rule="nonzero"/>
        </clipPath>
        <clipPath id="id5">
            <path d="M 0.175781 157 L 1 157 L 1 158 L 0.175781 158 Z M 0.175781 157 " clip-rule="nonzero"/>
        </clipPath>
        <clipPath id="id6">
            <path d="M 0.175781 191 L 1 191 L 1 192 L 0.175781 192 Z M 0.175781 191 " clip-rule="nonzero"/>
        </clipPath>
        <clipPath id="id7">
            <path d="M 0.175781 224 L 1 224 L 1 225 L 0.175781 225 Z M 0.175781 224 " clip-rule="nonzero"/>
        </clipPath>
        <clipPath id="id8">
            <path d="M 0.175781 239 L 7 239 L 7 261 L 0.175781 261 Z M 0.175781 239 " clip-rule="nonzero"/>
        </clipPath>
    </defs>
    <g clip-path="url(#id1)">
        <g fill="rgb(100%, 56.858826%, 30.198669%)" fill-opacity="1">
            <g transform="translate(0.176895, 22.652138)">
                <g>
                    <path d="M 8.039062 0.0507812 L 13.082031 -12.6875 L 13.082031 -13.304688 L 9.074219 -13.304688 L 7.402344 -9.050781 L 6.46875 -5.65625 L 5.507812 -9.050781 L 3.859375 -13.304688 L -0.171875 -13.304688 L -0.171875 -12.6875 L 4.867188 0.0507812 Z M 8.039062 0.0507812 "/>
                </g>
            </g>
        </g>
    </g>
    <g fill="rgb(100%, 56.858826%, 30.198669%)" fill-opacity="1">
        <g transform="translate(14.117015, 22.652138)">
            <g>
                <path d="M 6.785156 -13.523438 C 2.460938 -13.523438 0.34375 -10.476562 0.34375 -6.835938 C 0.34375 -3.171875 2.53125 0.171875 6.738281 0.171875 C 8.015625 0.171875 9.320312 -0.195312 10.230469 -1.328125 L 10.230469 0 L 14.089844 0 L 14.089844 -13.304688 L 10.230469 -13.304688 L 10.230469 -11.925781 C 9.367188 -13.03125 8.089844 -13.523438 6.785156 -13.523438 Z M 7.203125 -3.539062 C 5.238281 -3.539062 4.230469 -5.140625 4.230469 -6.738281 C 4.230469 -8.359375 5.214844 -9.957031 7.203125 -9.957031 C 8.875 -9.957031 10.230469 -8.507812 10.230469 -6.738281 C 10.230469 -4.96875 8.875 -3.539062 7.203125 -3.539062 Z M 7.203125 -3.539062 "/>
            </g>
        </g>
    </g>
    <g fill="rgb(100%, 56.858826%, 30.198669%)" fill-opacity="1">
        <g transform="translate(29.92565, 22.652138)">
            <g>
                <path d="M 4.378906 -12.417969 L 4.230469 -13.304688 L 0.738281 -13.304688 L 0.738281 0 L 4.597656 0 L 4.597656 -7.378906 C 4.597656 -9.171875 6.023438 -9.910156 7.425781 -9.933594 C 7.867188 -9.933594 8.335938 -9.859375 8.730469 -9.738281 L 8.777344 -13.375 C 8.261719 -13.5 7.746094 -13.574219 7.277344 -13.574219 C 6.195312 -13.574219 5.238281 -13.230469 4.378906 -12.417969 Z M 4.378906 -12.417969 "/>
            </g>
        </g>
    </g>
    <g fill="rgb(0%, 0%, 0%)" fill-opacity="1">
        <g transform="translate(40.002593, 22.652138)">
            <g/>
        </g>
    </g>
    <g fill="rgb(0%, 0%, 0%)" fill-opacity="1">
        <g transform="translate(46.173612, 22.652138)">
            <g>
                <path d="M 9.222656 -1.351562 L 9.222656 0 L 13.132812 0 L 13.132812 -13.304688 L 9.023438 -13.304688 L 9.023438 -6.074219 C 9.023438 -4.304688 7.820312 -3.320312 6.664062 -3.320312 C 5.605469 -3.320312 4.574219 -4.15625 4.574219 -6 L 4.574219 -13.304688 L 0.664062 -13.304688 L 0.664062 -5.976562 C 0.640625 -2.632812 1.695312 0.171875 5.605469 0.171875 C 6.984375 0.171875 8.3125 -0.195312 9.222656 -1.351562 Z M 9.222656 -1.351562 "/>
            </g>
        </g>
    </g>
    <g fill="rgb(0%, 0%, 0%)" fill-opacity="1">
        <g transform="translate(61.023408, 22.652138)">
            <g>
                <path d="M 0.492188 -9.023438 C 0.492188 -6.097656 3.097656 -5.140625 5.605469 -4.917969 C 6.246094 -4.867188 7.722656 -4.992188 7.722656 -4.03125 C 7.722656 -3.589844 7.082031 -3.222656 6.121094 -3.222656 C 5.214844 -3.222656 4.203125 -3.566406 4.179688 -4.476562 L 0.296875 -4.476562 C 0.34375 -1.082031 2.753906 0.34375 5.925781 0.34375 C 8.875 0.34375 11.605469 -0.785156 11.605469 -4.132812 C 11.605469 -7.277344 8.777344 -8.457031 6 -8.53125 C 5.433594 -8.558594 4.402344 -8.582031 4.402344 -9.269531 C 4.402344 -9.984375 5.1875 -10.179688 5.753906 -10.179688 C 6.566406 -10.179688 7.597656 -10.105469 7.621094 -9.074219 L 11.335938 -9.074219 C 11.3125 -12.171875 8.828125 -13.621094 5.976562 -13.621094 C 3 -13.621094 0.492188 -12.246094 0.492188 -9.023438 Z M 0.492188 -9.023438 "/>
            </g>
        </g>
    </g>
    <g fill="rgb(0%, 0%, 0%)" fill-opacity="1">
        <g transform="translate(73.685068, 22.652138)">
            <g>
                <path d="M 14.066406 -6.6875 C 14.066406 -11.238281 10.621094 -13.5 7.203125 -13.5 C 3.738281 -13.5 0.320312 -11.238281 0.320312 -6.6875 C 0.320312 -2.140625 3.738281 0.148438 7.179688 0.148438 C 9.933594 0.148438 12.664062 -1.304688 13.671875 -4.203125 L 9.46875 -4.203125 C 8.902344 -3.589844 8.089844 -3.296875 7.230469 -3.296875 C 6.050781 -3.320312 4.84375 -3.933594 4.378906 -5.164062 L 13.917969 -5.164062 C 14.015625 -5.65625 14.066406 -6.148438 14.066406 -6.6875 Z M 9.835938 -8.1875 L 4.523438 -8.1875 C 4.917969 -9.492188 5.976562 -10.132812 7.132812 -10.132812 C 8.386719 -10.132812 9.46875 -9.515625 9.835938 -8.1875 Z M 9.835938 -8.1875 "/>
            </g>
        </g>
    </g>
    <g fill="rgb(0%, 0%, 0%)" fill-opacity="1">
        <g transform="translate(89.419946, 22.652138)">
            <g>
                <path d="M 4.378906 -12.417969 L 4.230469 -13.304688 L 0.738281 -13.304688 L 0.738281 0 L 4.597656 0 L 4.597656 -7.378906 C 4.597656 -9.171875 6.023438 -9.910156 7.425781 -9.933594 C 7.867188 -9.933594 8.335938 -9.859375 8.730469 -9.738281 L 8.777344 -13.375 C 8.261719 -13.5 7.746094 -13.574219 7.277344 -13.574219 C 6.195312 -13.574219 5.238281 -13.230469 4.378906 -12.417969 Z M 4.378906 -12.417969 "/>
            </g>
        </g>
    </g>
    <g fill="rgb(0%, 0%, 0%)" fill-opacity="1">
        <g transform="translate(99.500103, 22.652138)">
            <g/>
        </g>
    </g>
    <g fill="rgb(0%, 0%, 0%)" fill-opacity="1">
        <g transform="translate(105.671122, 22.652138)">
            <g>
                <path d="M 0 -12.296875 L 0 -8.65625 L 10.304688 -8.65625 L 10.304688 -12.296875 Z M 0 -7.84375 L 0 -4.253906 L 10.304688 -4.253906 L 10.304688 -7.84375 Z M 0 -7.84375 "/>
            </g>
        </g>
    </g>
    <g fill="rgb(0%, 0%, 0%)" fill-opacity="1">
        <g transform="translate(117.767308, 22.652138)">
            <g/>
        </g>
    </g>
    <g fill="rgb(100%, 56.858826%, 30.198669%)" fill-opacity="1">
        <g transform="translate(123.924686, 22.652138)">
            <g>
                <path d="M 4.476562 -11.976562 L 4.476562 -13.304688 L 0.566406 -13.304688 L 0.566406 0 L 4.671875 0 L 4.671875 -7.230469 C 4.671875 -8.925781 6.050781 -9.910156 7.203125 -9.910156 C 8.261719 -9.910156 9.269531 -9.097656 9.269531 -7.304688 L 9.269531 0 L 13.203125 0 L 13.203125 -7.328125 C 13.230469 -10.648438 12.195312 -13.449219 8.410156 -13.5 C 6.984375 -13.5 5.410156 -13.15625 4.476562 -11.976562 Z M 4.476562 -11.976562 "/>
            </g>
        </g>
    </g>
    <g fill="rgb(100%, 56.858826%, 30.198669%)" fill-opacity="1">
        <g transform="translate(138.848239, 22.652138)">
            <g>
                <path d="M 14.066406 -6.6875 C 14.066406 -11.238281 10.621094 -13.5 7.203125 -13.5 C 3.738281 -13.5 0.320312 -11.238281 0.320312 -6.6875 C 0.320312 -2.140625 3.738281 0.148438 7.179688 0.148438 C 9.933594 0.148438 12.664062 -1.304688 13.671875 -4.203125 L 9.46875 -4.203125 C 8.902344 -3.589844 8.089844 -3.296875 7.230469 -3.296875 C 6.050781 -3.320312 4.84375 -3.933594 4.378906 -5.164062 L 13.917969 -5.164062 C 14.015625 -5.65625 14.066406 -6.148438 14.066406 -6.6875 Z M 9.835938 -8.1875 L 4.523438 -8.1875 C 4.917969 -9.492188 5.976562 -10.132812 7.132812 -10.132812 C 8.386719 -10.132812 9.46875 -9.515625 9.835938 -8.1875 Z M 9.835938 -8.1875 "/>
            </g>
        </g>
    </g>
    <g fill="rgb(100%, 56.858826%, 30.198669%)" fill-opacity="1">
        <g transform="translate(154.583118, 22.652138)">
            <g>
                <path d="M -0.246094 -13.304688 L -0.246094 -12.714844 L 3.984375 0 L 7.695312 0 L 8.261719 -1.523438 L 9.417969 -5.261719 L 10.523438 -1.574219 L 11.113281 0 L 14.828125 0 L 19.058594 -12.714844 L 19.058594 -13.304688 L 15.097656 -13.304688 L 13.769531 -9.296875 L 12.886719 -5.65625 L 10.796875 -12.539062 L 8.015625 -12.539062 L 5.925781 -5.65625 L 5.039062 -9.296875 L 3.714844 -13.304688 Z M -0.246094 -13.304688 "/>
            </g>
        </g>
    </g>
    <g fill="rgb(0%, 0%, 0%)" fill-opacity="1">
        <g transform="translate(174.544129, 22.652138)">
            <g/>
        </g>
    </g>
    <g fill="rgb(0%, 0%, 0%)" fill-opacity="1">
        <g transform="translate(180.715147, 22.652138)">
            <g>
                <path d="M 8.1875 -17.359375 L 1.230469 -17.359375 L 1.230469 0 L 5.433594 0 L 5.433594 -5.113281 L 8.1875 -5.113281 C 12.222656 -5.113281 14.238281 -8.1875 14.238281 -11.214844 C 14.238281 -14.238281 12.222656 -17.359375 8.1875 -17.359375 Z M 8.1875 -9.074219 L 5.433594 -9.074219 L 5.433594 -13.277344 L 8.1875 -13.277344 C 9.492188 -13.277344 10.132812 -12.171875 10.132812 -11.140625 C 10.132812 -10.132812 9.492188 -9.074219 8.1875 -9.074219 Z M 8.1875 -9.074219 "/>
            </g>
        </g>
    </g>
    <g fill="rgb(0%, 0%, 0%)" fill-opacity="1">
        <g transform="translate(195.712458, 22.652138)">
            <g>
                <path d="M 4.378906 -12.417969 L 4.230469 -13.304688 L 0.738281 -13.304688 L 0.738281 0 L 4.597656 0 L 4.597656 -7.378906 C 4.597656 -9.171875 6.023438 -9.910156 7.425781 -9.933594 C 7.867188 -9.933594 8.335938 -9.859375 8.730469 -9.738281 L 8.777344 -13.375 C 8.261719 -13.5 7.746094 -13.574219 7.277344 -13.574219 C 6.195312 -13.574219 5.238281 -13.230469 4.378906 -12.417969 Z M 4.378906 -12.417969 "/>
            </g>
        </g>
    </g>
    <g fill="rgb(0%, 0%, 0%)" fill-opacity="1">
        <g transform="translate(205.792615, 22.652138)">
            <g>
                <path d="M 14.285156 -6.640625 C 14.285156 -11.386719 10.746094 -13.746094 7.203125 -13.746094 C 3.640625 -13.746094 0.0976562 -11.386719 0.0976562 -6.640625 C 0.0976562 -1.917969 3.664062 0.441406 7.203125 0.441406 C 10.746094 0.441406 14.285156 -1.917969 14.285156 -6.640625 Z M 3.984375 -6.640625 C 3.984375 -8.902344 5.582031 -10.03125 7.203125 -10.03125 C 8.976562 -10.03125 10.402344 -8.902344 10.402344 -6.640625 C 10.402344 -4.402344 8.804688 -3.296875 7.203125 -3.296875 C 5.582031 -3.296875 3.984375 -4.402344 3.984375 -6.640625 Z M 3.984375 -6.640625 "/>
            </g>
        </g>
    </g>
    <g fill="rgb(0%, 0%, 0%)" fill-opacity="1">
        <g transform="translate(221.355398, 22.652138)">
            <g>
                <path d="M 6.714844 -0.0507812 C 8.039062 -0.0507812 9.296875 -0.417969 10.15625 -1.425781 L 10.15625 -0.738281 C 10.03125 1.648438 8.484375 2.386719 7.058594 2.386719 C 5.851562 2.386719 4.746094 1.722656 4.746094 0.933594 L 0.6875 0.933594 C 0.6875 4.15625 3.957031 6.148438 7.253906 6.148438 C 10.621094 6.148438 14.015625 4.15625 14.015625 -0.761719 L 14.015625 -13.304688 L 10.15625 -13.304688 L 10.15625 -11.976562 C 9.269531 -13.132812 7.941406 -13.449219 6.640625 -13.449219 C 2.433594 -13.449219 0.296875 -10.351562 0.296875 -6.539062 C 0.296875 -2.878906 2.433594 -0.0507812 6.714844 -0.0507812 Z M 7.15625 -9.761719 C 8.804688 -9.761719 10.15625 -8.3125 10.15625 -6.539062 C 10.15625 -4.695312 8.65625 -3.738281 7.15625 -3.714844 C 5.65625 -3.714844 4.179688 -4.648438 4.179688 -6.539062 C 4.179688 -8.140625 5.164062 -9.761719 7.15625 -9.761719 Z M 7.15625 -9.761719 "/>
            </g>
        </g>
    </g>
    <g fill="rgb(0%, 0%, 0%)" fill-opacity="1">
        <g transform="translate(237.090277, 22.652138)">
            <g>
                <path d="M 4.378906 -12.417969 L 4.230469 -13.304688 L 0.738281 -13.304688 L 0.738281 0 L 4.597656 0 L 4.597656 -7.378906 C 4.597656 -9.171875 6.023438 -9.910156 7.425781 -9.933594 C 7.867188 -9.933594 8.335938 -9.859375 8.730469 -9.738281 L 8.777344 -13.375 C 8.261719 -13.5 7.746094 -13.574219 7.277344 -13.574219 C 6.195312 -13.574219 5.238281 -13.230469 4.378906 -12.417969 Z M 4.378906 -12.417969 "/>
            </g>
        </g>
    </g>
    <g fill="rgb(0%, 0%, 0%)" fill-opacity="1">
        <g transform="translate(247.170434, 22.652138)">
            <g>
                <path d="M 6.785156 -13.523438 C 2.460938 -13.523438 0.34375 -10.476562 0.34375 -6.835938 C 0.34375 -3.171875 2.53125 0.171875 6.738281 0.171875 C 8.015625 0.171875 9.320312 -0.195312 10.230469 -1.328125 L 10.230469 0 L 14.089844 0 L 14.089844 -13.304688 L 10.230469 -13.304688 L 10.230469 -11.925781 C 9.367188 -13.03125 8.089844 -13.523438 6.785156 -13.523438 Z M 7.203125 -3.539062 C 5.238281 -3.539062 4.230469 -5.140625 4.230469 -6.738281 C 4.230469 -8.359375 5.214844 -9.957031 7.203125 -9.957031 C 8.875 -9.957031 10.230469 -8.507812 10.230469 -6.738281 C 10.230469 -4.96875 8.875 -3.539062 7.203125 -3.539062 Z M 7.203125 -3.539062 "/>
            </g>
        </g>
    </g>
    <g fill="rgb(0%, 0%, 0%)" fill-opacity="1">
        <g transform="translate(262.979069, 22.652138)">
            <g>
                <path d="M 4.796875 -11.976562 L 4.796875 -13.304688 L 0.886719 -13.304688 L 0.886719 0 L 4.992188 0 L 4.992188 -7.523438 C 4.992188 -9 6.195312 -9.6875 7.15625 -9.6875 C 8.066406 -9.6875 8.851562 -9.097656 8.851562 -7.476562 L 8.851562 0 L 12.761719 0 L 12.761719 -7.574219 C 12.785156 -9.023438 14.164062 -9.6875 15.121094 -9.6875 C 16.03125 -9.6875 16.820312 -9.097656 16.820312 -7.476562 L 16.820312 0 L 20.730469 0 L 20.730469 -7.5 C 20.777344 -11.851562 18.613281 -13.476562 15.984375 -13.476562 C 14.484375 -13.476562 12.714844 -12.910156 11.851562 -11.730469 C 11.214844 -12.761719 10.203125 -13.5 8.605469 -13.5 C 7.203125 -13.5 5.703125 -13.132812 4.796875 -11.976562 Z M 4.796875 -11.976562 "/>
            </g>
        </g>
    </g>
    <g fill="rgb(0%, 0%, 0%)" fill-opacity="1">
        <g transform="translate(285.45044, 22.652138)">
            <g>
                <path d="M 4.796875 -11.976562 L 4.796875 -13.304688 L 0.886719 -13.304688 L 0.886719 0 L 4.992188 0 L 4.992188 -7.523438 C 4.992188 -9 6.195312 -9.6875 7.15625 -9.6875 C 8.066406 -9.6875 8.851562 -9.097656 8.851562 -7.476562 L 8.851562 0 L 12.761719 0 L 12.761719 -7.574219 C 12.785156 -9.023438 14.164062 -9.6875 15.121094 -9.6875 C 16.03125 -9.6875 16.820312 -9.097656 16.820312 -7.476562 L 16.820312 0 L 20.730469 0 L 20.730469 -7.5 C 20.777344 -11.851562 18.613281 -13.476562 15.984375 -13.476562 C 14.484375 -13.476562 12.714844 -12.910156 11.851562 -11.730469 C 11.214844 -12.761719 10.203125 -13.5 8.605469 -13.5 C 7.203125 -13.5 5.703125 -13.132812 4.796875 -11.976562 Z M 4.796875 -11.976562 "/>
            </g>
        </g>
    </g>
    <g fill="rgb(0%, 0%, 0%)" fill-opacity="1">
        <g transform="translate(307.92181, 22.652138)">
            <g>
                <path d="M 14.066406 -6.6875 C 14.066406 -11.238281 10.621094 -13.5 7.203125 -13.5 C 3.738281 -13.5 0.320312 -11.238281 0.320312 -6.6875 C 0.320312 -2.140625 3.738281 0.148438 7.179688 0.148438 C 9.933594 0.148438 12.664062 -1.304688 13.671875 -4.203125 L 9.46875 -4.203125 C 8.902344 -3.589844 8.089844 -3.296875 7.230469 -3.296875 C 6.050781 -3.320312 4.84375 -3.933594 4.378906 -5.164062 L 13.917969 -5.164062 C 14.015625 -5.65625 14.066406 -6.148438 14.066406 -6.6875 Z M 9.835938 -8.1875 L 4.523438 -8.1875 C 4.917969 -9.492188 5.976562 -10.132812 7.132812 -10.132812 C 8.386719 -10.132812 9.46875 -9.515625 9.835938 -8.1875 Z M 9.835938 -8.1875 "/>
            </g>
        </g>
    </g>
    <g fill="rgb(0%, 0%, 0%)" fill-opacity="1">
        <g transform="translate(323.656689, 22.652138)">
            <g>
                <path d="M 4.378906 -12.417969 L 4.230469 -13.304688 L 0.738281 -13.304688 L 0.738281 0 L 4.597656 0 L 4.597656 -7.378906 C 4.597656 -9.171875 6.023438 -9.910156 7.425781 -9.933594 C 7.867188 -9.933594 8.335938 -9.859375 8.730469 -9.738281 L 8.777344 -13.375 C 8.261719 -13.5 7.746094 -13.574219 7.277344 -13.574219 C 6.195312 -13.574219 5.238281 -13.230469 4.378906 -12.417969 Z M 4.378906 -12.417969 "/>
            </g>
        </g>
    </g>
    <g fill="rgb(0%, 0%, 0%)" fill-opacity="1">
        <g transform="translate(333.736846, 22.652138)">
            <g>
                <path d="M 8.753906 -16.179688 L 8.753906 -20.285156 C 2.3125 -17.875 0.46875 -12.417969 0.46875 -8.164062 C 0.46875 -3.785156 2.632812 1.378906 8.753906 3.859375 L 8.753906 -0.589844 C 5.507812 -2.3125 4.5 -5.433594 4.5 -8.238281 C 4.5 -11.089844 5.1875 -14.359375 8.753906 -16.179688 Z M 8.753906 -16.179688 "/>
            </g>
        </g>
    </g>
    <g fill="rgb(0%, 0%, 0%)" fill-opacity="1">
        <g transform="translate(344.407057, 22.652138)">
            <g/>
        </g>
    </g>
    <g fill="rgb(0%, 0%, 0%)" fill-opacity="1">
        <g transform="translate(350.578076, 22.652138)">
            <g>
                <path d="M 0.222656 -20.285156 L 0.222656 -16.179688 C 3.785156 -14.359375 4.476562 -11.089844 4.476562 -8.238281 C 4.476562 -5.433594 3.46875 -2.3125 0.222656 -0.589844 L 0.222656 3.859375 C 6.34375 1.378906 8.507812 -3.785156 8.507812 -8.164062 C 8.507812 -12.417969 6.664062 -17.875 0.222656 -20.285156 Z M 0.222656 -20.285156 "/>
            </g>
        </g>
    </g>
    <g fill="rgb(0%, 0%, 0%)" fill-opacity="1">
        <g transform="translate(361.494153, 22.652138)">
            <g>
                <path d="M 2.605469 -12.34375 C 1.425781 -12.34375 0.492188 -11.484375 0.492188 -10.230469 C 0.492188 -9.171875 1.425781 -8.140625 2.605469 -8.140625 C 3.910156 -8.140625 4.820312 -9.171875 4.820312 -10.230469 C 4.820312 -11.484375 3.910156 -12.34375 2.605469 -12.34375 Z M 5.039062 -1.722656 L 2.558594 2.753906 L -0.933594 2.753906 L 1.105469 -2.902344 L 5.039062 -2.902344 Z M 5.039062 -1.722656 "/>
            </g>
        </g>
    </g>
    <g clip-path="url(#id2)">
        <g fill="rgb(100%, 56.858826%, 30.198669%)" fill-opacity="1">
            <g transform="translate(0.176895, 56.349681)">
                <g>
                    <path d="M -0.246094 -13.304688 L -0.246094 -12.714844 L 3.984375 0 L 7.695312 0 L 8.261719 -1.523438 L 9.417969 -5.261719 L 10.523438 -1.574219 L 11.113281 0 L 14.828125 0 L 19.058594 -12.714844 L 19.058594 -13.304688 L 15.097656 -13.304688 L 13.769531 -9.296875 L 12.886719 -5.65625 L 10.796875 -12.539062 L 8.015625 -12.539062 L 5.925781 -5.65625 L 5.039062 -9.296875 L 3.714844 -13.304688 Z M -0.246094 -13.304688 "/>
                </g>
            </g>
        </g>
    </g>
    <g fill="rgb(100%, 56.858826%, 30.198669%)" fill-opacity="1">
        <g transform="translate(20.140519, 56.349681)">
            <g>
                <path d="M 4.5 -11.976562 L 4.5 -17.335938 L 0.589844 -17.335938 L 0.589844 0 L 4.695312 0 L 4.695312 -7.230469 C 4.695312 -8.828125 6.097656 -9.835938 7.253906 -9.835938 C 8.3125 -9.835938 9.296875 -9.074219 9.296875 -7.304688 L 9.296875 0 L 13.203125 0 L 13.203125 -7.328125 C 13.253906 -10.648438 12.195312 -13.449219 8.410156 -13.5 C 6.984375 -13.5 5.457031 -13.15625 4.5 -11.976562 Z M 4.5 -11.976562 "/>
            </g>
        </g>
    </g>
    <g fill="rgb(100%, 56.858826%, 30.198669%)" fill-opacity="1">
        <g transform="translate(35.064073, 56.349681)">
            <g>
                <path d="M 0.539062 -16.230469 C 0.539062 -14.777344 1.722656 -14.066406 2.902344 -14.066406 C 4.03125 -14.066406 5.1875 -14.777344 5.1875 -16.230469 C 5.1875 -17.753906 4.007812 -18.492188 2.828125 -18.492188 C 1.695312 -18.492188 0.539062 -17.730469 0.539062 -16.230469 Z M 0.910156 -13.304688 L 4.84375 -13.304688 L 4.84375 0 L 0.910156 0 Z M 0.910156 -13.304688 "/>
            </g>
        </g>
    </g>
    <g fill="rgb(100%, 56.858826%, 30.198669%)" fill-opacity="1">
        <g transform="translate(41.653051, 56.349681)">
            <g>
                <path d="M 4.523438 -17.214844 L 0.589844 -17.214844 L 0.589844 0 L 4.523438 0 Z M 4.523438 -17.214844 "/>
            </g>
        </g>
    </g>
    <g fill="rgb(100%, 56.858826%, 30.198669%)" fill-opacity="1">
        <g transform="translate(47.774908, 56.349681)">
            <g>
                <path d="M 14.066406 -6.6875 C 14.066406 -11.238281 10.621094 -13.5 7.203125 -13.5 C 3.738281 -13.5 0.320312 -11.238281 0.320312 -6.6875 C 0.320312 -2.140625 3.738281 0.148438 7.179688 0.148438 C 9.933594 0.148438 12.664062 -1.304688 13.671875 -4.203125 L 9.46875 -4.203125 C 8.902344 -3.589844 8.089844 -3.296875 7.230469 -3.296875 C 6.050781 -3.320312 4.84375 -3.933594 4.378906 -5.164062 L 13.917969 -5.164062 C 14.015625 -5.65625 14.066406 -6.148438 14.066406 -6.6875 Z M 9.835938 -8.1875 L 4.523438 -8.1875 C 4.917969 -9.492188 5.976562 -10.132812 7.132812 -10.132812 C 8.386719 -10.132812 9.46875 -9.515625 9.835938 -8.1875 Z M 9.835938 -8.1875 "/>
            </g>
        </g>
    </g>
    <g fill="rgb(0%, 0%, 0%)" fill-opacity="1">
        <g transform="translate(63.506044, 56.349681)">
            <g/>
        </g>
    </g>
    <g fill="rgb(0%, 0%, 0%)" fill-opacity="1">
        <g transform="translate(69.677063, 56.349681)">
            <g>
                <path d="M 8.753906 -16.179688 L 8.753906 -20.285156 C 2.3125 -17.875 0.46875 -12.417969 0.46875 -8.164062 C 0.46875 -3.785156 2.632812 1.378906 8.753906 3.859375 L 8.753906 -0.589844 C 5.507812 -2.3125 4.5 -5.433594 4.5 -8.238281 C 4.5 -11.089844 5.1875 -14.359375 8.753906 -16.179688 Z M 8.753906 -16.179688 "/>
            </g>
        </g>
    </g>
    <g fill="rgb(100%, 0%, 0%)" fill-opacity="1">
        <g transform="translate(80.34019, 56.349681)">
            <g>
                <path d="M 8.851562 0.0234375 L 8.730469 -3.171875 C 8.386719 -3.097656 7.992188 -3.050781 7.621094 -3.050781 C 6.6875 -3.050781 5.828125 -3.417969 5.828125 -4.597656 L 5.828125 -9.835938 L 8.605469 -9.835938 L 8.605469 -13.15625 L 5.828125 -13.15625 L 5.828125 -16.03125 L 1.96875 -15.6875 L 1.96875 -13.15625 L 0.222656 -13.15625 L 0.222656 -9.835938 L 1.96875 -9.835938 L 1.96875 -4.597656 C 1.96875 -1.15625 3.738281 0.222656 6.664062 0.222656 C 7.328125 0.222656 8.066406 0.148438 8.851562 0.0234375 Z M 8.851562 0.0234375 "/>
            </g>
        </g>
    </g>
    <g fill="rgb(100%, 0%, 0%)" fill-opacity="1">
        <g transform="translate(90.54328, 56.349681)">
            <g>
                <path d="M 4.378906 -12.417969 L 4.230469 -13.304688 L 0.738281 -13.304688 L 0.738281 0 L 4.597656 0 L 4.597656 -7.378906 C 4.597656 -9.171875 6.023438 -9.910156 7.425781 -9.933594 C 7.867188 -9.933594 8.335938 -9.859375 8.730469 -9.738281 L 8.777344 -13.375 C 8.261719 -13.5 7.746094 -13.574219 7.277344 -13.574219 C 6.195312 -13.574219 5.238281 -13.230469 4.378906 -12.417969 Z M 4.378906 -12.417969 "/>
            </g>
        </g>
    </g>
    <g fill="rgb(100%, 0%, 0%)" fill-opacity="1">
        <g transform="translate(100.623437, 56.349681)">
            <g>
                <path d="M 9.222656 -1.351562 L 9.222656 0 L 13.132812 0 L 13.132812 -13.304688 L 9.023438 -13.304688 L 9.023438 -6.074219 C 9.023438 -4.304688 7.820312 -3.320312 6.664062 -3.320312 C 5.605469 -3.320312 4.574219 -4.15625 4.574219 -6 L 4.574219 -13.304688 L 0.664062 -13.304688 L 0.664062 -5.976562 C 0.640625 -2.632812 1.695312 0.171875 5.605469 0.171875 C 6.984375 0.171875 8.3125 -0.195312 9.222656 -1.351562 Z M 9.222656 -1.351562 "/>
            </g>
        </g>
    </g>
    <g fill="rgb(100%, 0%, 0%)" fill-opacity="1">
        <g transform="translate(115.473234, 56.349681)">
            <g>
                <path d="M 14.066406 -6.6875 C 14.066406 -11.238281 10.621094 -13.5 7.203125 -13.5 C 3.738281 -13.5 0.320312 -11.238281 0.320312 -6.6875 C 0.320312 -2.140625 3.738281 0.148438 7.179688 0.148438 C 9.933594 0.148438 12.664062 -1.304688 13.671875 -4.203125 L 9.46875 -4.203125 C 8.902344 -3.589844 8.089844 -3.296875 7.230469 -3.296875 C 6.050781 -3.320312 4.84375 -3.933594 4.378906 -5.164062 L 13.917969 -5.164062 C 14.015625 -5.65625 14.066406 -6.148438 14.066406 -6.6875 Z M 9.835938 -8.1875 L 4.523438 -8.1875 C 4.917969 -9.492188 5.976562 -10.132812 7.132812 -10.132812 C 8.386719 -10.132812 9.46875 -9.515625 9.835938 -8.1875 Z M 9.835938 -8.1875 "/>
            </g>
        </g>
    </g>
    <g fill="rgb(0%, 0%, 0%)" fill-opacity="1">
        <g transform="translate(131.193644, 56.349681)">
            <g>
                <path d="M 0.222656 -20.285156 L 0.222656 -16.179688 C 3.785156 -14.359375 4.476562 -11.089844 4.476562 -8.238281 C 4.476562 -5.433594 3.46875 -2.3125 0.222656 -0.589844 L 0.222656 3.859375 C 6.34375 1.378906 8.507812 -3.785156 8.507812 -8.164062 C 8.507812 -12.417969 6.664062 -17.875 0.222656 -20.285156 Z M 0.222656 -20.285156 "/>
            </g>
        </g>
    </g>
    <g clip-path="url(#id3)">
        <g fill="rgb(0%, 0%, 0%)" fill-opacity="1">
            <g transform="translate(0.176895, 90.047224)">
                <g>
                    <path d="M 5.3125 -11.214844 L 5.3125 -15.097656 L 6.785156 -15.097656 L 6.785156 -18.738281 L 4.769531 -18.738281 C 2.582031 -18.738281 1.378906 -17.335938 1.378906 -15.269531 L 1.378906 -11.582031 C 1.378906 -10.769531 1.105469 -10.007812 0.0234375 -10.007812 L 0.0234375 -6.320312 C 1.105469 -6.320312 1.378906 -5.558594 1.378906 -4.769531 L 1.378906 -1.132812 C 1.378906 0.910156 2.582031 2.3125 4.769531 2.3125 L 6.785156 2.3125 L 6.785156 -1.328125 L 5.3125 -1.328125 L 5.3125 -5.140625 C 5.3125 -6.023438 5.089844 -7.574219 3.738281 -8.164062 C 5.066406 -8.730469 5.3125 -10.304688 5.3125 -11.214844 Z M 5.3125 -11.214844 "/>
                </g>
            </g>
        </g>
    </g>
    <g clip-path="url(#id4)">
        <g fill="rgb(0%, 0%, 0%)" fill-opacity="1">
            <g transform="translate(0.176895, 123.744767)">
                <g/>
            </g>
        </g>
    </g>
    <g fill="rgb(0%, 0%, 0%)" fill-opacity="1">
        <g transform="translate(6.347913, 123.744767)">
            <g/>
        </g>
    </g>
    <g fill="rgb(0%, 0%, 0%)" fill-opacity="1">
        <g transform="translate(12.518932, 123.744767)">
            <g/>
        </g>
    </g>
    <g fill="rgb(0%, 0%, 0%)" fill-opacity="1">
        <g transform="translate(18.68995, 123.744767)">
            <g/>
        </g>
    </g>
    <g fill="rgb(0%, 0%, 0%)" fill-opacity="1">
        <g transform="translate(24.860969, 123.744767)">
            <g/>
        </g>
    </g>
    <g fill="rgb(0%, 0%, 0%)" fill-opacity="1">
        <g transform="translate(31.031987, 123.744767)">
            <g/>
        </g>
    </g>
    <g fill="rgb(0%, 0%, 0%)" fill-opacity="1">
        <g transform="translate(37.203006, 123.744767)">
            <g/>
        </g>
    </g>
    <g fill="rgb(0%, 29.019165%, 67.83905%)" fill-opacity="1">
        <g transform="translate(43.366497, 123.744767)">
            <g>
                <path d="M 9.222656 -1.351562 L 9.222656 0 L 13.132812 0 L 13.132812 -13.304688 L 9.023438 -13.304688 L 9.023438 -6.074219 C 9.023438 -4.304688 7.820312 -3.320312 6.664062 -3.320312 C 5.605469 -3.320312 4.574219 -4.15625 4.574219 -6 L 4.574219 -13.304688 L 0.664062 -13.304688 L 0.664062 -5.976562 C 0.640625 -2.632812 1.695312 0.171875 5.605469 0.171875 C 6.984375 0.171875 8.3125 -0.195312 9.222656 -1.351562 Z M 9.222656 -1.351562 "/>
            </g>
        </g>
    </g>
    <g fill="rgb(0%, 29.019165%, 67.83905%)" fill-opacity="1">
        <g transform="translate(58.216294, 123.744767)">
            <g>
                <path d="M 0.492188 -9.023438 C 0.492188 -6.097656 3.097656 -5.140625 5.605469 -4.917969 C 6.246094 -4.867188 7.722656 -4.992188 7.722656 -4.03125 C 7.722656 -3.589844 7.082031 -3.222656 6.121094 -3.222656 C 5.214844 -3.222656 4.203125 -3.566406 4.179688 -4.476562 L 0.296875 -4.476562 C 0.34375 -1.082031 2.753906 0.34375 5.925781 0.34375 C 8.875 0.34375 11.605469 -0.785156 11.605469 -4.132812 C 11.605469 -7.277344 8.777344 -8.457031 6 -8.53125 C 5.433594 -8.558594 4.402344 -8.582031 4.402344 -9.269531 C 4.402344 -9.984375 5.1875 -10.179688 5.753906 -10.179688 C 6.566406 -10.179688 7.597656 -10.105469 7.621094 -9.074219 L 11.335938 -9.074219 C 11.3125 -12.171875 8.828125 -13.621094 5.976562 -13.621094 C 3 -13.621094 0.492188 -12.246094 0.492188 -9.023438 Z M 0.492188 -9.023438 "/>
            </g>
        </g>
    </g>
    <g fill="rgb(0%, 29.019165%, 67.83905%)" fill-opacity="1">
        <g transform="translate(70.877953, 123.744767)">
            <g>
                <path d="M 14.066406 -6.6875 C 14.066406 -11.238281 10.621094 -13.5 7.203125 -13.5 C 3.738281 -13.5 0.320312 -11.238281 0.320312 -6.6875 C 0.320312 -2.140625 3.738281 0.148438 7.179688 0.148438 C 9.933594 0.148438 12.664062 -1.304688 13.671875 -4.203125 L 9.46875 -4.203125 C 8.902344 -3.589844 8.089844 -3.296875 7.230469 -3.296875 C 6.050781 -3.320312 4.84375 -3.933594 4.378906 -5.164062 L 13.917969 -5.164062 C 14.015625 -5.65625 14.066406 -6.148438 14.066406 -6.6875 Z M 9.835938 -8.1875 L 4.523438 -8.1875 C 4.917969 -9.492188 5.976562 -10.132812 7.132812 -10.132812 C 8.386719 -10.132812 9.46875 -9.515625 9.835938 -8.1875 Z M 9.835938 -8.1875 "/>
            </g>
        </g>
    </g>
    <g fill="rgb(0%, 29.019165%, 67.83905%)" fill-opacity="1">
        <g transform="translate(86.612832, 123.744767)">
            <g>
                <path d="M 4.378906 -12.417969 L 4.230469 -13.304688 L 0.738281 -13.304688 L 0.738281 0 L 4.597656 0 L 4.597656 -7.378906 C 4.597656 -9.171875 6.023438 -9.910156 7.425781 -9.933594 C 7.867188 -9.933594 8.335938 -9.859375 8.730469 -9.738281 L 8.777344 -13.375 C 8.261719 -13.5 7.746094 -13.574219 7.277344 -13.574219 C 6.195312 -13.574219 5.238281 -13.230469 4.378906 -12.417969 Z M 4.378906 -12.417969 "/>
            </g>
        </g>
    </g>
    <g fill="rgb(0%, 0%, 0%)" fill-opacity="1">
        <g transform="translate(96.691689, 123.744767)">
            <g>
                <path d="M 2.113281 -4.304688 C 0.886719 -4.304688 -0.0976562 -3.417969 -0.0976562 -2.113281 C -0.0976562 -1.03125 0.886719 0.0742188 2.113281 0.0742188 C 3.441406 0.0742188 4.402344 -1.03125 4.402344 -2.113281 C 4.402344 -3.417969 3.441406 -4.304688 2.113281 -4.304688 Z M 2.113281 -4.304688 "/>
            </g>
        </g>
    </g>
    <g fill="rgb(0%, 0%, 0%)" fill-opacity="1">
        <g transform="translate(102.616856, 123.744767)">
            <g>
                <path d="M -0.246094 -13.304688 L -0.246094 -12.714844 L 3.984375 0 L 7.695312 0 L 8.261719 -1.523438 L 9.417969 -5.261719 L 10.523438 -1.574219 L 11.113281 0 L 14.828125 0 L 19.058594 -12.714844 L 19.058594 -13.304688 L 15.097656 -13.304688 L 13.769531 -9.296875 L 12.886719 -5.65625 L 10.796875 -12.539062 L 8.015625 -12.539062 L 5.925781 -5.65625 L 5.039062 -9.296875 L 3.714844 -13.304688 Z M -0.246094 -13.304688 "/>
            </g>
        </g>
    </g>
    <g fill="rgb(0%, 0%, 0%)" fill-opacity="1">
        <g transform="translate(122.580481, 123.744767)">
            <g>
                <path d="M 6.785156 -13.523438 C 2.460938 -13.523438 0.34375 -10.476562 0.34375 -6.835938 C 0.34375 -3.171875 2.53125 0.171875 6.738281 0.171875 C 8.015625 0.171875 9.320312 -0.195312 10.230469 -1.328125 L 10.230469 0 L 14.089844 0 L 14.089844 -13.304688 L 10.230469 -13.304688 L 10.230469 -11.925781 C 9.367188 -13.03125 8.089844 -13.523438 6.785156 -13.523438 Z M 7.203125 -3.539062 C 5.238281 -3.539062 4.230469 -5.140625 4.230469 -6.738281 C 4.230469 -8.359375 5.214844 -9.957031 7.203125 -9.957031 C 8.875 -9.957031 10.230469 -8.507812 10.230469 -6.738281 C 10.230469 -4.96875 8.875 -3.539062 7.203125 -3.539062 Z M 7.203125 -3.539062 "/>
            </g>
        </g>
    </g>
    <g fill="rgb(0%, 0%, 0%)" fill-opacity="1">
        <g transform="translate(138.389116, 123.744767)">
            <g>
                <path d="M 7.992188 -6.6875 L 12.492188 -13.105469 L 12.492188 -13.304688 L 8.261719 -13.304688 L 4.597656 -8.066406 L 4.597656 -17.214844 L 0.738281 -17.214844 L 0.738281 0 L 4.597656 0 L 4.597656 -5.1875 L 8.410156 0 L 12.933594 0 L 12.933594 -0.171875 Z M 7.992188 -6.6875 "/>
            </g>
        </g>
    </g>
    <g fill="rgb(0%, 0%, 0%)" fill-opacity="1">
        <g transform="translate(152.132546, 123.744767)">
            <g>
                <path d="M 14.066406 -6.6875 C 14.066406 -11.238281 10.621094 -13.5 7.203125 -13.5 C 3.738281 -13.5 0.320312 -11.238281 0.320312 -6.6875 C 0.320312 -2.140625 3.738281 0.148438 7.179688 0.148438 C 9.933594 0.148438 12.664062 -1.304688 13.671875 -4.203125 L 9.46875 -4.203125 C 8.902344 -3.589844 8.089844 -3.296875 7.230469 -3.296875 C 6.050781 -3.320312 4.84375 -3.933594 4.378906 -5.164062 L 13.917969 -5.164062 C 14.015625 -5.65625 14.066406 -6.148438 14.066406 -6.6875 Z M 9.835938 -8.1875 L 4.523438 -8.1875 C 4.917969 -9.492188 5.976562 -10.132812 7.132812 -10.132812 C 8.386719 -10.132812 9.46875 -9.515625 9.835938 -8.1875 Z M 9.835938 -8.1875 "/>
            </g>
        </g>
    </g>
    <g fill="rgb(0%, 0%, 0%)" fill-opacity="1">
        <g transform="translate(167.867425, 123.744767)">
            <g>
                <path d="M 8.753906 -16.179688 L 8.753906 -20.285156 C 2.3125 -17.875 0.46875 -12.417969 0.46875 -8.164062 C 0.46875 -3.785156 2.632812 1.378906 8.753906 3.859375 L 8.753906 -0.589844 C 5.507812 -2.3125 4.5 -5.433594 4.5 -8.238281 C 4.5 -11.089844 5.1875 -14.359375 8.753906 -16.179688 Z M 8.753906 -16.179688 "/>
            </g>
        </g>
    </g>
    <g fill="rgb(0%, 0%, 0%)" fill-opacity="1">
        <g transform="translate(178.537636, 123.744767)">
            <g/>
        </g>
    </g>
    <g fill="rgb(0%, 0%, 0%)" fill-opacity="1">
        <g transform="translate(184.708655, 123.744767)">
            <g>
                <path d="M 0.222656 -20.285156 L 0.222656 -16.179688 C 3.785156 -14.359375 4.476562 -11.089844 4.476562 -8.238281 C 4.476562 -5.433594 3.46875 -2.3125 0.222656 -0.589844 L 0.222656 3.859375 C 6.34375 1.378906 8.507812 -3.785156 8.507812 -8.164062 C 8.507812 -12.417969 6.664062 -17.875 0.222656 -20.285156 Z M 0.222656 -20.285156 "/>
            </g>
        </g>
    </g>
    <g fill="rgb(0%, 0%, 0%)" fill-opacity="1">
        <g transform="translate(195.624732, 123.744767)">
            <g>
                <path d="M 2.605469 -12.34375 C 1.425781 -12.34375 0.492188 -11.484375 0.492188 -10.230469 C 0.492188 -9.171875 1.425781 -8.140625 2.605469 -8.140625 C 3.910156 -8.140625 4.820312 -9.171875 4.820312 -10.230469 C 4.820312 -11.484375 3.910156 -12.34375 2.605469 -12.34375 Z M 5.039062 -1.722656 L 2.558594 2.753906 L -0.933594 2.753906 L 1.105469 -2.902344 L 5.039062 -2.902344 Z M 5.039062 -1.722656 "/>
            </g>
        </g>
    </g>
    <g clip-path="url(#id5)">
        <g fill="rgb(0%, 0%, 0%)" fill-opacity="1">
            <g transform="translate(0.176895, 157.44231)">
                <g/>
            </g>
        </g>
    </g>
    <g fill="rgb(0%, 0%, 0%)" fill-opacity="1">
        <g transform="translate(6.347913, 157.44231)">
            <g/>
        </g>
    </g>
    <g fill="rgb(0%, 0%, 0%)" fill-opacity="1">
        <g transform="translate(12.518932, 157.44231)">
            <g/>
        </g>
    </g>
    <g fill="rgb(0%, 0%, 0%)" fill-opacity="1">
        <g transform="translate(18.68995, 157.44231)">
            <g/>
        </g>
    </g>
    <g fill="rgb(0%, 0%, 0%)" fill-opacity="1">
        <g transform="translate(24.860969, 157.44231)">
            <g/>
        </g>
    </g>
    <g fill="rgb(0%, 0%, 0%)" fill-opacity="1">
        <g transform="translate(31.031987, 157.44231)">
            <g/>
        </g>
    </g>
    <g fill="rgb(0%, 0%, 0%)" fill-opacity="1">
        <g transform="translate(37.203006, 157.44231)">
            <g/>
        </g>
    </g>
    <g fill="rgb(0%, 29.019165%, 67.83905%)" fill-opacity="1">
        <g transform="translate(43.366497, 157.44231)">
            <g>
                <path d="M 9.222656 -1.351562 L 9.222656 0 L 13.132812 0 L 13.132812 -13.304688 L 9.023438 -13.304688 L 9.023438 -6.074219 C 9.023438 -4.304688 7.820312 -3.320312 6.664062 -3.320312 C 5.605469 -3.320312 4.574219 -4.15625 4.574219 -6 L 4.574219 -13.304688 L 0.664062 -13.304688 L 0.664062 -5.976562 C 0.640625 -2.632812 1.695312 0.171875 5.605469 0.171875 C 6.984375 0.171875 8.3125 -0.195312 9.222656 -1.351562 Z M 9.222656 -1.351562 "/>
            </g>
        </g>
    </g>
    <g fill="rgb(0%, 29.019165%, 67.83905%)" fill-opacity="1">
        <g transform="translate(58.216294, 157.44231)">
            <g>
                <path d="M 0.492188 -9.023438 C 0.492188 -6.097656 3.097656 -5.140625 5.605469 -4.917969 C 6.246094 -4.867188 7.722656 -4.992188 7.722656 -4.03125 C 7.722656 -3.589844 7.082031 -3.222656 6.121094 -3.222656 C 5.214844 -3.222656 4.203125 -3.566406 4.179688 -4.476562 L 0.296875 -4.476562 C 0.34375 -1.082031 2.753906 0.34375 5.925781 0.34375 C 8.875 0.34375 11.605469 -0.785156 11.605469 -4.132812 C 11.605469 -7.277344 8.777344 -8.457031 6 -8.53125 C 5.433594 -8.558594 4.402344 -8.582031 4.402344 -9.269531 C 4.402344 -9.984375 5.1875 -10.179688 5.753906 -10.179688 C 6.566406 -10.179688 7.597656 -10.105469 7.621094 -9.074219 L 11.335938 -9.074219 C 11.3125 -12.171875 8.828125 -13.621094 5.976562 -13.621094 C 3 -13.621094 0.492188 -12.246094 0.492188 -9.023438 Z M 0.492188 -9.023438 "/>
            </g>
        </g>
    </g>
    <g fill="rgb(0%, 29.019165%, 67.83905%)" fill-opacity="1">
        <g transform="translate(70.877953, 157.44231)">
            <g>
                <path d="M 14.066406 -6.6875 C 14.066406 -11.238281 10.621094 -13.5 7.203125 -13.5 C 3.738281 -13.5 0.320312 -11.238281 0.320312 -6.6875 C 0.320312 -2.140625 3.738281 0.148438 7.179688 0.148438 C 9.933594 0.148438 12.664062 -1.304688 13.671875 -4.203125 L 9.46875 -4.203125 C 8.902344 -3.589844 8.089844 -3.296875 7.230469 -3.296875 C 6.050781 -3.320312 4.84375 -3.933594 4.378906 -5.164062 L 13.917969 -5.164062 C 14.015625 -5.65625 14.066406 -6.148438 14.066406 -6.6875 Z M 9.835938 -8.1875 L 4.523438 -8.1875 C 4.917969 -9.492188 5.976562 -10.132812 7.132812 -10.132812 C 8.386719 -10.132812 9.46875 -9.515625 9.835938 -8.1875 Z M 9.835938 -8.1875 "/>
            </g>
        </g>
    </g>
    <g fill="rgb(0%, 29.019165%, 67.83905%)" fill-opacity="1">
        <g transform="translate(86.612832, 157.44231)">
            <g>
                <path d="M 4.378906 -12.417969 L 4.230469 -13.304688 L 0.738281 -13.304688 L 0.738281 0 L 4.597656 0 L 4.597656 -7.378906 C 4.597656 -9.171875 6.023438 -9.910156 7.425781 -9.933594 C 7.867188 -9.933594 8.335938 -9.859375 8.730469 -9.738281 L 8.777344 -13.375 C 8.261719 -13.5 7.746094 -13.574219 7.277344 -13.574219 C 6.195312 -13.574219 5.238281 -13.230469 4.378906 -12.417969 Z M 4.378906 -12.417969 "/>
            </g>
        </g>
    </g>
    <g fill="rgb(0%, 0%, 0%)" fill-opacity="1">
        <g transform="translate(96.691689, 157.44231)">
            <g>
                <path d="M 2.113281 -4.304688 C 0.886719 -4.304688 -0.0976562 -3.417969 -0.0976562 -2.113281 C -0.0976562 -1.03125 0.886719 0.0742188 2.113281 0.0742188 C 3.441406 0.0742188 4.402344 -1.03125 4.402344 -2.113281 C 4.402344 -3.417969 3.441406 -4.304688 2.113281 -4.304688 Z M 2.113281 -4.304688 "/>
            </g>
        </g>
    </g>
    <g fill="rgb(0%, 0%, 0%)" fill-opacity="1">
        <g transform="translate(102.616856, 157.44231)">
            <g>
                <path d="M 6.785156 -13.523438 C 2.460938 -13.523438 0.34375 -10.476562 0.34375 -6.835938 C 0.34375 -3.171875 2.53125 0.171875 6.738281 0.171875 C 8.015625 0.171875 9.320312 -0.195312 10.230469 -1.328125 L 10.230469 0 L 14.089844 0 L 14.089844 -17.335938 L 10.230469 -17.335938 L 10.230469 -12.097656 C 9.34375 -13.105469 8.089844 -13.523438 6.785156 -13.523438 Z M 7.203125 -3.539062 C 5.238281 -3.539062 4.230469 -5.140625 4.230469 -6.738281 C 4.230469 -8.359375 5.214844 -9.957031 7.203125 -9.957031 C 8.875 -9.957031 10.230469 -8.507812 10.230469 -6.738281 C 10.230469 -4.96875 8.875 -3.539062 7.203125 -3.539062 Z M 7.203125 -3.539062 "/>
            </g>
        </g>
    </g>
    <g fill="rgb(0%, 0%, 0%)" fill-opacity="1">
        <g transform="translate(118.425491, 157.44231)">
            <g>
                <path d="M 14.066406 -6.6875 C 14.066406 -11.238281 10.621094 -13.5 7.203125 -13.5 C 3.738281 -13.5 0.320312 -11.238281 0.320312 -6.6875 C 0.320312 -2.140625 3.738281 0.148438 7.179688 0.148438 C 9.933594 0.148438 12.664062 -1.304688 13.671875 -4.203125 L 9.46875 -4.203125 C 8.902344 -3.589844 8.089844 -3.296875 7.230469 -3.296875 C 6.050781 -3.320312 4.84375 -3.933594 4.378906 -5.164062 L 13.917969 -5.164062 C 14.015625 -5.65625 14.066406 -6.148438 14.066406 -6.6875 Z M 9.835938 -8.1875 L 4.523438 -8.1875 C 4.917969 -9.492188 5.976562 -10.132812 7.132812 -10.132812 C 8.386719 -10.132812 9.46875 -9.515625 9.835938 -8.1875 Z M 9.835938 -8.1875 "/>
            </g>
        </g>
    </g>
    <g fill="rgb(0%, 0%, 0%)" fill-opacity="1">
        <g transform="translate(134.16037, 157.44231)">
            <g>
                <path d="M 0.492188 -9.023438 C 0.492188 -6.097656 3.097656 -5.140625 5.605469 -4.917969 C 6.246094 -4.867188 7.722656 -4.992188 7.722656 -4.03125 C 7.722656 -3.589844 7.082031 -3.222656 6.121094 -3.222656 C 5.214844 -3.222656 4.203125 -3.566406 4.179688 -4.476562 L 0.296875 -4.476562 C 0.34375 -1.082031 2.753906 0.34375 5.925781 0.34375 C 8.875 0.34375 11.605469 -0.785156 11.605469 -4.132812 C 11.605469 -7.277344 8.777344 -8.457031 6 -8.53125 C 5.433594 -8.558594 4.402344 -8.582031 4.402344 -9.269531 C 4.402344 -9.984375 5.1875 -10.179688 5.753906 -10.179688 C 6.566406 -10.179688 7.597656 -10.105469 7.621094 -9.074219 L 11.335938 -9.074219 C 11.3125 -12.171875 8.828125 -13.621094 5.976562 -13.621094 C 3 -13.621094 0.492188 -12.246094 0.492188 -9.023438 Z M 0.492188 -9.023438 "/>
            </g>
        </g>
    </g>
    <g fill="rgb(0%, 0%, 0%)" fill-opacity="1">
        <g transform="translate(146.822029, 157.44231)">
            <g>
                <path d="M 0.539062 -16.230469 C 0.539062 -14.777344 1.722656 -14.066406 2.902344 -14.066406 C 4.03125 -14.066406 5.1875 -14.777344 5.1875 -16.230469 C 5.1875 -17.753906 4.007812 -18.492188 2.828125 -18.492188 C 1.695312 -18.492188 0.539062 -17.730469 0.539062 -16.230469 Z M 0.910156 -13.304688 L 4.84375 -13.304688 L 4.84375 0 L 0.910156 0 Z M 0.910156 -13.304688 "/>
            </g>
        </g>
    </g>
    <g fill="rgb(0%, 0%, 0%)" fill-opacity="1">
        <g transform="translate(153.411008, 157.44231)">
            <g>
                <path d="M 6.714844 -0.0507812 C 8.039062 -0.0507812 9.296875 -0.417969 10.15625 -1.425781 L 10.15625 -0.738281 C 10.03125 1.648438 8.484375 2.386719 7.058594 2.386719 C 5.851562 2.386719 4.746094 1.722656 4.746094 0.933594 L 0.6875 0.933594 C 0.6875 4.15625 3.957031 6.148438 7.253906 6.148438 C 10.621094 6.148438 14.015625 4.15625 14.015625 -0.761719 L 14.015625 -13.304688 L 10.15625 -13.304688 L 10.15625 -11.976562 C 9.269531 -13.132812 7.941406 -13.449219 6.640625 -13.449219 C 2.433594 -13.449219 0.296875 -10.351562 0.296875 -6.539062 C 0.296875 -2.878906 2.433594 -0.0507812 6.714844 -0.0507812 Z M 7.15625 -9.761719 C 8.804688 -9.761719 10.15625 -8.3125 10.15625 -6.539062 C 10.15625 -4.695312 8.65625 -3.738281 7.15625 -3.714844 C 5.65625 -3.714844 4.179688 -4.648438 4.179688 -6.539062 C 4.179688 -8.140625 5.164062 -9.761719 7.15625 -9.761719 Z M 7.15625 -9.761719 "/>
            </g>
        </g>
    </g>
    <g fill="rgb(0%, 0%, 0%)" fill-opacity="1">
        <g transform="translate(169.145886, 157.44231)">
            <g>
                <path d="M 4.476562 -11.976562 L 4.476562 -13.304688 L 0.566406 -13.304688 L 0.566406 0 L 4.671875 0 L 4.671875 -7.230469 C 4.671875 -8.925781 6.050781 -9.910156 7.203125 -9.910156 C 8.261719 -9.910156 9.269531 -9.097656 9.269531 -7.304688 L 9.269531 0 L 13.203125 0 L 13.203125 -7.328125 C 13.230469 -10.648438 12.195312 -13.449219 8.410156 -13.5 C 6.984375 -13.5 5.410156 -13.15625 4.476562 -11.976562 Z M 4.476562 -11.976562 "/>
            </g>
        </g>
    </g>
    <g fill="rgb(0%, 0%, 0%)" fill-opacity="1">
        <g transform="translate(184.06944, 157.44231)">
            <g>
                <path d="M 8.753906 -16.179688 L 8.753906 -20.285156 C 2.3125 -17.875 0.46875 -12.417969 0.46875 -8.164062 C 0.46875 -3.785156 2.632812 1.378906 8.753906 3.859375 L 8.753906 -0.589844 C 5.507812 -2.3125 4.5 -5.433594 4.5 -8.238281 C 4.5 -11.089844 5.1875 -14.359375 8.753906 -16.179688 Z M 8.753906 -16.179688 "/>
            </g>
        </g>
    </g>
    <g fill="rgb(0%, 0%, 0%)" fill-opacity="1">
        <g transform="translate(194.739651, 157.44231)">
            <g/>
        </g>
    </g>
    <g fill="rgb(0%, 0%, 0%)" fill-opacity="1">
        <g transform="translate(200.91067, 157.44231)">
            <g>
                <path d="M 0.222656 -20.285156 L 0.222656 -16.179688 C 3.785156 -14.359375 4.476562 -11.089844 4.476562 -8.238281 C 4.476562 -5.433594 3.46875 -2.3125 0.222656 -0.589844 L 0.222656 3.859375 C 6.34375 1.378906 8.507812 -3.785156 8.507812 -8.164062 C 8.507812 -12.417969 6.664062 -17.875 0.222656 -20.285156 Z M 0.222656 -20.285156 "/>
            </g>
        </g>
    </g>
    <g fill="rgb(0%, 0%, 0%)" fill-opacity="1">
        <g transform="translate(211.826747, 157.44231)">
            <g>
                <path d="M 2.605469 -12.34375 C 1.425781 -12.34375 0.492188 -11.484375 0.492188 -10.230469 C 0.492188 -9.171875 1.425781 -8.140625 2.605469 -8.140625 C 3.910156 -8.140625 4.820312 -9.171875 4.820312 -10.230469 C 4.820312 -11.484375 3.910156 -12.34375 2.605469 -12.34375 Z M 5.039062 -1.722656 L 2.558594 2.753906 L -0.933594 2.753906 L 1.105469 -2.902344 L 5.039062 -2.902344 Z M 5.039062 -1.722656 "/>
            </g>
        </g>
    </g>
    <g clip-path="url(#id6)">
        <g fill="rgb(0%, 0%, 0%)" fill-opacity="1">
            <g transform="translate(0.176895, 191.139853)">
                <g/>
            </g>
        </g>
    </g>
    <g fill="rgb(0%, 0%, 0%)" fill-opacity="1">
        <g transform="translate(6.347913, 191.139853)">
            <g/>
        </g>
    </g>
    <g fill="rgb(0%, 0%, 0%)" fill-opacity="1">
        <g transform="translate(12.518932, 191.139853)">
            <g/>
        </g>
    </g>
    <g fill="rgb(0%, 0%, 0%)" fill-opacity="1">
        <g transform="translate(18.68995, 191.139853)">
            <g/>
        </g>
    </g>
    <g fill="rgb(0%, 0%, 0%)" fill-opacity="1">
        <g transform="translate(24.860969, 191.139853)">
            <g/>
        </g>
    </g>
    <g fill="rgb(0%, 0%, 0%)" fill-opacity="1">
        <g transform="translate(31.031987, 191.139853)">
            <g/>
        </g>
    </g>
    <g fill="rgb(0%, 0%, 0%)" fill-opacity="1">
        <g transform="translate(37.203006, 191.139853)">
            <g/>
        </g>
    </g>
    <g fill="rgb(0%, 29.019165%, 67.83905%)" fill-opacity="1">
        <g transform="translate(43.366497, 191.139853)">
            <g>
                <path d="M 9.222656 -1.351562 L 9.222656 0 L 13.132812 0 L 13.132812 -13.304688 L 9.023438 -13.304688 L 9.023438 -6.074219 C 9.023438 -4.304688 7.820312 -3.320312 6.664062 -3.320312 C 5.605469 -3.320312 4.574219 -4.15625 4.574219 -6 L 4.574219 -13.304688 L 0.664062 -13.304688 L 0.664062 -5.976562 C 0.640625 -2.632812 1.695312 0.171875 5.605469 0.171875 C 6.984375 0.171875 8.3125 -0.195312 9.222656 -1.351562 Z M 9.222656 -1.351562 "/>
            </g>
        </g>
    </g>
    <g fill="rgb(0%, 29.019165%, 67.83905%)" fill-opacity="1">
        <g transform="translate(58.216294, 191.139853)">
            <g>
                <path d="M 0.492188 -9.023438 C 0.492188 -6.097656 3.097656 -5.140625 5.605469 -4.917969 C 6.246094 -4.867188 7.722656 -4.992188 7.722656 -4.03125 C 7.722656 -3.589844 7.082031 -3.222656 6.121094 -3.222656 C 5.214844 -3.222656 4.203125 -3.566406 4.179688 -4.476562 L 0.296875 -4.476562 C 0.34375 -1.082031 2.753906 0.34375 5.925781 0.34375 C 8.875 0.34375 11.605469 -0.785156 11.605469 -4.132812 C 11.605469 -7.277344 8.777344 -8.457031 6 -8.53125 C 5.433594 -8.558594 4.402344 -8.582031 4.402344 -9.269531 C 4.402344 -9.984375 5.1875 -10.179688 5.753906 -10.179688 C 6.566406 -10.179688 7.597656 -10.105469 7.621094 -9.074219 L 11.335938 -9.074219 C 11.3125 -12.171875 8.828125 -13.621094 5.976562 -13.621094 C 3 -13.621094 0.492188 -12.246094 0.492188 -9.023438 Z M 0.492188 -9.023438 "/>
            </g>
        </g>
    </g>
    <g fill="rgb(0%, 29.019165%, 67.83905%)" fill-opacity="1">
        <g transform="translate(70.877953, 191.139853)">
            <g>
                <path d="M 14.066406 -6.6875 C 14.066406 -11.238281 10.621094 -13.5 7.203125 -13.5 C 3.738281 -13.5 0.320312 -11.238281 0.320312 -6.6875 C 0.320312 -2.140625 3.738281 0.148438 7.179688 0.148438 C 9.933594 0.148438 12.664062 -1.304688 13.671875 -4.203125 L 9.46875 -4.203125 C 8.902344 -3.589844 8.089844 -3.296875 7.230469 -3.296875 C 6.050781 -3.320312 4.84375 -3.933594 4.378906 -5.164062 L 13.917969 -5.164062 C 14.015625 -5.65625 14.066406 -6.148438 14.066406 -6.6875 Z M 9.835938 -8.1875 L 4.523438 -8.1875 C 4.917969 -9.492188 5.976562 -10.132812 7.132812 -10.132812 C 8.386719 -10.132812 9.46875 -9.515625 9.835938 -8.1875 Z M 9.835938 -8.1875 "/>
            </g>
        </g>
    </g>
    <g fill="rgb(0%, 29.019165%, 67.83905%)" fill-opacity="1">
        <g transform="translate(86.612832, 191.139853)">
            <g>
                <path d="M 4.378906 -12.417969 L 4.230469 -13.304688 L 0.738281 -13.304688 L 0.738281 0 L 4.597656 0 L 4.597656 -7.378906 C 4.597656 -9.171875 6.023438 -9.910156 7.425781 -9.933594 C 7.867188 -9.933594 8.335938 -9.859375 8.730469 -9.738281 L 8.777344 -13.375 C 8.261719 -13.5 7.746094 -13.574219 7.277344 -13.574219 C 6.195312 -13.574219 5.238281 -13.230469 4.378906 -12.417969 Z M 4.378906 -12.417969 "/>
            </g>
        </g>
    </g>
    <g fill="rgb(0%, 0%, 0%)" fill-opacity="1">
        <g transform="translate(96.691689, 191.139853)">
            <g>
                <path d="M 2.113281 -4.304688 C 0.886719 -4.304688 -0.0976562 -3.417969 -0.0976562 -2.113281 C -0.0976562 -1.03125 0.886719 0.0742188 2.113281 0.0742188 C 3.441406 0.0742188 4.402344 -1.03125 4.402344 -2.113281 C 4.402344 -3.417969 3.441406 -4.304688 2.113281 -4.304688 Z M 2.113281 -4.304688 "/>
            </g>
        </g>
    </g>
    <g fill="rgb(0%, 0%, 0%)" fill-opacity="1">
        <g transform="translate(102.616856, 191.139853)">
            <g>
                <path d="M 13.722656 -5.65625 L 9.886719 -5.65625 C 9.441406 -4.179688 8.238281 -3.492188 7.058594 -3.492188 C 5.582031 -3.492188 4.105469 -4.574219 4.105469 -6.664062 C 4.105469 -8.753906 5.582031 -9.835938 7.058594 -9.835938 C 8.238281 -9.835938 9.441406 -9.121094 9.886719 -7.648438 L 13.722656 -7.648438 C 13.203125 -11.558594 10.132812 -13.476562 7.058594 -13.476562 C 3.6875 -13.476562 0.320312 -11.164062 0.320312 -6.664062 C 0.320312 -2.164062 3.6875 0.148438 7.058594 0.148438 C 10.132812 0.148438 13.203125 -1.769531 13.722656 -5.65625 Z M 13.722656 -5.65625 "/>
            </g>
        </g>
    </g>
    <g fill="rgb(0%, 0%, 0%)" fill-opacity="1">
        <g transform="translate(117.712504, 191.139853)">
            <g>
                <path d="M 14.285156 -6.640625 C 14.285156 -11.386719 10.746094 -13.746094 7.203125 -13.746094 C 3.640625 -13.746094 0.0976562 -11.386719 0.0976562 -6.640625 C 0.0976562 -1.917969 3.664062 0.441406 7.203125 0.441406 C 10.746094 0.441406 14.285156 -1.917969 14.285156 -6.640625 Z M 3.984375 -6.640625 C 3.984375 -8.902344 5.582031 -10.03125 7.203125 -10.03125 C 8.976562 -10.03125 10.402344 -8.902344 10.402344 -6.640625 C 10.402344 -4.402344 8.804688 -3.296875 7.203125 -3.296875 C 5.582031 -3.296875 3.984375 -4.402344 3.984375 -6.640625 Z M 3.984375 -6.640625 "/>
            </g>
        </g>
    </g>
    <g fill="rgb(0%, 0%, 0%)" fill-opacity="1">
        <g transform="translate(133.275288, 191.139853)">
            <g>
                <path d="M 6.785156 -13.523438 C 2.460938 -13.523438 0.34375 -10.476562 0.34375 -6.835938 C 0.34375 -3.171875 2.53125 0.171875 6.738281 0.171875 C 8.015625 0.171875 9.320312 -0.195312 10.230469 -1.328125 L 10.230469 0 L 14.089844 0 L 14.089844 -17.335938 L 10.230469 -17.335938 L 10.230469 -12.097656 C 9.34375 -13.105469 8.089844 -13.523438 6.785156 -13.523438 Z M 7.203125 -3.539062 C 5.238281 -3.539062 4.230469 -5.140625 4.230469 -6.738281 C 4.230469 -8.359375 5.214844 -9.957031 7.203125 -9.957031 C 8.875 -9.957031 10.230469 -8.507812 10.230469 -6.738281 C 10.230469 -4.96875 8.875 -3.539062 7.203125 -3.539062 Z M 7.203125 -3.539062 "/>
            </g>
        </g>
    </g>
    <g fill="rgb(0%, 0%, 0%)" fill-opacity="1">
        <g transform="translate(149.083923, 191.139853)">
            <g>
                <path d="M 14.066406 -6.6875 C 14.066406 -11.238281 10.621094 -13.5 7.203125 -13.5 C 3.738281 -13.5 0.320312 -11.238281 0.320312 -6.6875 C 0.320312 -2.140625 3.738281 0.148438 7.179688 0.148438 C 9.933594 0.148438 12.664062 -1.304688 13.671875 -4.203125 L 9.46875 -4.203125 C 8.902344 -3.589844 8.089844 -3.296875 7.230469 -3.296875 C 6.050781 -3.320312 4.84375 -3.933594 4.378906 -5.164062 L 13.917969 -5.164062 C 14.015625 -5.65625 14.066406 -6.148438 14.066406 -6.6875 Z M 9.835938 -8.1875 L 4.523438 -8.1875 C 4.917969 -9.492188 5.976562 -10.132812 7.132812 -10.132812 C 8.386719 -10.132812 9.46875 -9.515625 9.835938 -8.1875 Z M 9.835938 -8.1875 "/>
            </g>
        </g>
    </g>
    <g fill="rgb(0%, 0%, 0%)" fill-opacity="1">
        <g transform="translate(164.818802, 191.139853)">
            <g>
                <path d="M 8.753906 -16.179688 L 8.753906 -20.285156 C 2.3125 -17.875 0.46875 -12.417969 0.46875 -8.164062 C 0.46875 -3.785156 2.632812 1.378906 8.753906 3.859375 L 8.753906 -0.589844 C 5.507812 -2.3125 4.5 -5.433594 4.5 -8.238281 C 4.5 -11.089844 5.1875 -14.359375 8.753906 -16.179688 Z M 8.753906 -16.179688 "/>
            </g>
        </g>
    </g>
    <g fill="rgb(0%, 0%, 0%)" fill-opacity="1">
        <g transform="translate(175.489013, 191.139853)">
            <g/>
        </g>
    </g>
    <g fill="rgb(0%, 0%, 0%)" fill-opacity="1">
        <g transform="translate(181.660032, 191.139853)">
            <g>
                <path d="M 0.222656 -20.285156 L 0.222656 -16.179688 C 3.785156 -14.359375 4.476562 -11.089844 4.476562 -8.238281 C 4.476562 -5.433594 3.46875 -2.3125 0.222656 -0.589844 L 0.222656 3.859375 C 6.34375 1.378906 8.507812 -3.785156 8.507812 -8.164062 C 8.507812 -12.417969 6.664062 -17.875 0.222656 -20.285156 Z M 0.222656 -20.285156 "/>
            </g>
        </g>
    </g>
    <g fill="rgb(0%, 0%, 0%)" fill-opacity="1">
        <g transform="translate(192.576109, 191.139853)">
            <g>
                <path d="M 2.605469 -12.34375 C 1.425781 -12.34375 0.492188 -11.484375 0.492188 -10.230469 C 0.492188 -9.171875 1.425781 -8.140625 2.605469 -8.140625 C 3.910156 -8.140625 4.820312 -9.171875 4.820312 -10.230469 C 4.820312 -11.484375 3.910156 -12.34375 2.605469 -12.34375 Z M 5.039062 -1.722656 L 2.558594 2.753906 L -0.933594 2.753906 L 1.105469 -2.902344 L 5.039062 -2.902344 Z M 5.039062 -1.722656 "/>
            </g>
        </g>
    </g>
    <g clip-path="url(#id7)">
        <g fill="rgb(0%, 0%, 0%)" fill-opacity="1">
            <g transform="translate(0.176895, 224.837396)">
                <g/>
            </g>
        </g>
    </g>
    <g fill="rgb(0%, 0%, 0%)" fill-opacity="1">
        <g transform="translate(6.347913, 224.837396)">
            <g/>
        </g>
    </g>
    <g fill="rgb(0%, 0%, 0%)" fill-opacity="1">
        <g transform="translate(12.518932, 224.837396)">
            <g/>
        </g>
    </g>
    <g fill="rgb(0%, 0%, 0%)" fill-opacity="1">
        <g transform="translate(18.68995, 224.837396)">
            <g/>
        </g>
    </g>
    <g fill="rgb(0%, 0%, 0%)" fill-opacity="1">
        <g transform="translate(24.860969, 224.837396)">
            <g/>
        </g>
    </g>
    <g fill="rgb(0%, 0%, 0%)" fill-opacity="1">
        <g transform="translate(31.031987, 224.837396)">
            <g/>
        </g>
    </g>
    <g fill="rgb(0%, 0%, 0%)" fill-opacity="1">
        <g transform="translate(37.203006, 224.837396)">
            <g/>
        </g>
    </g>
    <g fill="rgb(0%, 29.019165%, 67.83905%)" fill-opacity="1">
        <g transform="translate(43.366497, 224.837396)">
            <g>
                <path d="M 9.222656 -1.351562 L 9.222656 0 L 13.132812 0 L 13.132812 -13.304688 L 9.023438 -13.304688 L 9.023438 -6.074219 C 9.023438 -4.304688 7.820312 -3.320312 6.664062 -3.320312 C 5.605469 -3.320312 4.574219 -4.15625 4.574219 -6 L 4.574219 -13.304688 L 0.664062 -13.304688 L 0.664062 -5.976562 C 0.640625 -2.632812 1.695312 0.171875 5.605469 0.171875 C 6.984375 0.171875 8.3125 -0.195312 9.222656 -1.351562 Z M 9.222656 -1.351562 "/>
            </g>
        </g>
    </g>
    <g fill="rgb(0%, 29.019165%, 67.83905%)" fill-opacity="1">
        <g transform="translate(58.216294, 224.837396)">
            <g>
                <path d="M 0.492188 -9.023438 C 0.492188 -6.097656 3.097656 -5.140625 5.605469 -4.917969 C 6.246094 -4.867188 7.722656 -4.992188 7.722656 -4.03125 C 7.722656 -3.589844 7.082031 -3.222656 6.121094 -3.222656 C 5.214844 -3.222656 4.203125 -3.566406 4.179688 -4.476562 L 0.296875 -4.476562 C 0.34375 -1.082031 2.753906 0.34375 5.925781 0.34375 C 8.875 0.34375 11.605469 -0.785156 11.605469 -4.132812 C 11.605469 -7.277344 8.777344 -8.457031 6 -8.53125 C 5.433594 -8.558594 4.402344 -8.582031 4.402344 -9.269531 C 4.402344 -9.984375 5.1875 -10.179688 5.753906 -10.179688 C 6.566406 -10.179688 7.597656 -10.105469 7.621094 -9.074219 L 11.335938 -9.074219 C 11.3125 -12.171875 8.828125 -13.621094 5.976562 -13.621094 C 3 -13.621094 0.492188 -12.246094 0.492188 -9.023438 Z M 0.492188 -9.023438 "/>
            </g>
        </g>
    </g>
    <g fill="rgb(0%, 29.019165%, 67.83905%)" fill-opacity="1">
        <g transform="translate(70.877953, 224.837396)">
            <g>
                <path d="M 14.066406 -6.6875 C 14.066406 -11.238281 10.621094 -13.5 7.203125 -13.5 C 3.738281 -13.5 0.320312 -11.238281 0.320312 -6.6875 C 0.320312 -2.140625 3.738281 0.148438 7.179688 0.148438 C 9.933594 0.148438 12.664062 -1.304688 13.671875 -4.203125 L 9.46875 -4.203125 C 8.902344 -3.589844 8.089844 -3.296875 7.230469 -3.296875 C 6.050781 -3.320312 4.84375 -3.933594 4.378906 -5.164062 L 13.917969 -5.164062 C 14.015625 -5.65625 14.066406 -6.148438 14.066406 -6.6875 Z M 9.835938 -8.1875 L 4.523438 -8.1875 C 4.917969 -9.492188 5.976562 -10.132812 7.132812 -10.132812 C 8.386719 -10.132812 9.46875 -9.515625 9.835938 -8.1875 Z M 9.835938 -8.1875 "/>
            </g>
        </g>
    </g>
    <g fill="rgb(0%, 29.019165%, 67.83905%)" fill-opacity="1">
        <g transform="translate(86.612832, 224.837396)">
            <g>
                <path d="M 4.378906 -12.417969 L 4.230469 -13.304688 L 0.738281 -13.304688 L 0.738281 0 L 4.597656 0 L 4.597656 -7.378906 C 4.597656 -9.171875 6.023438 -9.910156 7.425781 -9.933594 C 7.867188 -9.933594 8.335938 -9.859375 8.730469 -9.738281 L 8.777344 -13.375 C 8.261719 -13.5 7.746094 -13.574219 7.277344 -13.574219 C 6.195312 -13.574219 5.238281 -13.230469 4.378906 -12.417969 Z M 4.378906 -12.417969 "/>
            </g>
        </g>
    </g>
    <g fill="rgb(0%, 0%, 0%)" fill-opacity="1">
        <g transform="translate(96.691689, 224.837396)">
            <g>
                <path d="M 2.113281 -4.304688 C 0.886719 -4.304688 -0.0976562 -3.417969 -0.0976562 -2.113281 C -0.0976562 -1.03125 0.886719 0.0742188 2.113281 0.0742188 C 3.441406 0.0742188 4.402344 -1.03125 4.402344 -2.113281 C 4.402344 -3.417969 3.441406 -4.304688 2.113281 -4.304688 Z M 2.113281 -4.304688 "/>
            </g>
        </g>
    </g>
    <g fill="rgb(0%, 0%, 0%)" fill-opacity="1">
        <g transform="translate(102.616856, 224.837396)">
            <g>
                <path d="M 0.492188 -9.023438 C 0.492188 -6.097656 3.097656 -5.140625 5.605469 -4.917969 C 6.246094 -4.867188 7.722656 -4.992188 7.722656 -4.03125 C 7.722656 -3.589844 7.082031 -3.222656 6.121094 -3.222656 C 5.214844 -3.222656 4.203125 -3.566406 4.179688 -4.476562 L 0.296875 -4.476562 C 0.34375 -1.082031 2.753906 0.34375 5.925781 0.34375 C 8.875 0.34375 11.605469 -0.785156 11.605469 -4.132812 C 11.605469 -7.277344 8.777344 -8.457031 6 -8.53125 C 5.433594 -8.558594 4.402344 -8.582031 4.402344 -9.269531 C 4.402344 -9.984375 5.1875 -10.179688 5.753906 -10.179688 C 6.566406 -10.179688 7.597656 -10.105469 7.621094 -9.074219 L 11.335938 -9.074219 C 11.3125 -12.171875 8.828125 -13.621094 5.976562 -13.621094 C 3 -13.621094 0.492188 -12.246094 0.492188 -9.023438 Z M 0.492188 -9.023438 "/>
            </g>
        </g>
    </g>
    <g fill="rgb(0%, 0%, 0%)" fill-opacity="1">
        <g transform="translate(115.278516, 224.837396)">
            <g>
                <path d="M 4.523438 -17.214844 L 0.589844 -17.214844 L 0.589844 0 L 4.523438 0 Z M 4.523438 -17.214844 "/>
            </g>
        </g>
    </g>
    <g fill="rgb(0%, 0%, 0%)" fill-opacity="1">
        <g transform="translate(121.400372, 224.837396)">
            <g>
                <path d="M 14.066406 -6.6875 C 14.066406 -11.238281 10.621094 -13.5 7.203125 -13.5 C 3.738281 -13.5 0.320312 -11.238281 0.320312 -6.6875 C 0.320312 -2.140625 3.738281 0.148438 7.179688 0.148438 C 9.933594 0.148438 12.664062 -1.304688 13.671875 -4.203125 L 9.46875 -4.203125 C 8.902344 -3.589844 8.089844 -3.296875 7.230469 -3.296875 C 6.050781 -3.320312 4.84375 -3.933594 4.378906 -5.164062 L 13.917969 -5.164062 C 14.015625 -5.65625 14.066406 -6.148438 14.066406 -6.6875 Z M 9.835938 -8.1875 L 4.523438 -8.1875 C 4.917969 -9.492188 5.976562 -10.132812 7.132812 -10.132812 C 8.386719 -10.132812 9.46875 -9.515625 9.835938 -8.1875 Z M 9.835938 -8.1875 "/>
            </g>
        </g>
    </g>
    <g fill="rgb(0%, 0%, 0%)" fill-opacity="1">
        <g transform="translate(137.135251, 224.837396)">
            <g>
                <path d="M 14.066406 -6.6875 C 14.066406 -11.238281 10.621094 -13.5 7.203125 -13.5 C 3.738281 -13.5 0.320312 -11.238281 0.320312 -6.6875 C 0.320312 -2.140625 3.738281 0.148438 7.179688 0.148438 C 9.933594 0.148438 12.664062 -1.304688 13.671875 -4.203125 L 9.46875 -4.203125 C 8.902344 -3.589844 8.089844 -3.296875 7.230469 -3.296875 C 6.050781 -3.320312 4.84375 -3.933594 4.378906 -5.164062 L 13.917969 -5.164062 C 14.015625 -5.65625 14.066406 -6.148438 14.066406 -6.6875 Z M 9.835938 -8.1875 L 4.523438 -8.1875 C 4.917969 -9.492188 5.976562 -10.132812 7.132812 -10.132812 C 8.386719 -10.132812 9.46875 -9.515625 9.835938 -8.1875 Z M 9.835938 -8.1875 "/>
            </g>
        </g>
    </g>
    <g fill="rgb(0%, 0%, 0%)" fill-opacity="1">
        <g transform="translate(152.87013, 224.837396)">
            <g>
                <path d="M 8.015625 0.222656 C 12.34375 0.222656 14.457031 -2.828125 14.457031 -6.46875 C 14.457031 -10.132812 12.269531 -13.476562 8.066406 -13.476562 C 6.785156 -13.476562 5.484375 -13.105469 4.574219 -11.976562 L 4.574219 -13.304688 L 0.738281 -13.304688 L 0.738281 3.886719 L 4.574219 3.886719 L 4.574219 -1.230469 C 5.457031 -0.222656 6.714844 0.222656 8.015625 0.222656 Z M 7.597656 -9.761719 C 9.566406 -9.761719 10.574219 -8.164062 10.574219 -6.566406 C 10.574219 -4.96875 9.589844 -3.34375 7.597656 -3.34375 C 5.925781 -3.34375 4.574219 -4.796875 4.574219 -6.566406 C 4.574219 -8.335938 5.925781 -9.761719 7.597656 -9.761719 Z M 7.597656 -9.761719 "/>
            </g>
        </g>
    </g>
    <g fill="rgb(0%, 0%, 0%)" fill-opacity="1">
        <g transform="translate(168.850859, 224.837396)">
            <g>
                <path d="M 8.753906 -16.179688 L 8.753906 -20.285156 C 2.3125 -17.875 0.46875 -12.417969 0.46875 -8.164062 C 0.46875 -3.785156 2.632812 1.378906 8.753906 3.859375 L 8.753906 -0.589844 C 5.507812 -2.3125 4.5 -5.433594 4.5 -8.238281 C 4.5 -11.089844 5.1875 -14.359375 8.753906 -16.179688 Z M 8.753906 -16.179688 "/>
            </g>
        </g>
    </g>
    <g fill="rgb(0%, 0%, 0%)" fill-opacity="1">
        <g transform="translate(179.521071, 224.837396)">
            <g/>
        </g>
    </g>
    <g fill="rgb(0%, 0%, 0%)" fill-opacity="1">
        <g transform="translate(185.692089, 224.837396)">
            <g>
                <path d="M 0.222656 -20.285156 L 0.222656 -16.179688 C 3.785156 -14.359375 4.476562 -11.089844 4.476562 -8.238281 C 4.476562 -5.433594 3.46875 -2.3125 0.222656 -0.589844 L 0.222656 3.859375 C 6.34375 1.378906 8.507812 -3.785156 8.507812 -8.164062 C 8.507812 -12.417969 6.664062 -17.875 0.222656 -20.285156 Z M 0.222656 -20.285156 "/>
            </g>
        </g>
    </g>
    <g fill="rgb(0%, 0%, 0%)" fill-opacity="1">
        <g transform="translate(196.608166, 224.837396)">
            <g>
                <path d="M 2.605469 -12.34375 C 1.425781 -12.34375 0.492188 -11.484375 0.492188 -10.230469 C 0.492188 -9.171875 1.425781 -8.140625 2.605469 -8.140625 C 3.910156 -8.140625 4.820312 -9.171875 4.820312 -10.230469 C 4.820312 -11.484375 3.910156 -12.34375 2.605469 -12.34375 Z M 5.039062 -1.722656 L 2.558594 2.753906 L -0.933594 2.753906 L 1.105469 -2.902344 L 5.039062 -2.902344 Z M 5.039062 -1.722656 "/>
            </g>
        </g>
    </g>
    <g clip-path="url(#id8)">
        <g fill="rgb(0%, 0%, 0%)" fill-opacity="1">
            <g transform="translate(0.176895, 258.534939)">
                <g>
                    <path d="M 1.992188 -18.6875 L -0.0507812 -18.6875 L -0.0507812 -15.074219 L 1.425781 -15.074219 L 1.425781 -11.214844 C 1.425781 -10.304688 1.648438 -8.828125 2.804688 -8.164062 C 1.648438 -7.5 1.425781 -6.023438 1.425781 -5.140625 L 1.425781 -1.523438 L -0.0507812 -1.523438 L -0.0507812 2.113281 L 1.992188 2.113281 C 4.15625 2.113281 5.359375 0.714844 5.359375 -1.328125 L 5.359375 -4.769531 C 5.359375 -5.558594 5.65625 -6.320312 6.738281 -6.320312 L 6.738281 -10.007812 C 5.65625 -10.007812 5.359375 -10.769531 5.359375 -11.582031 L 5.359375 -15.222656 C 5.359375 -17.285156 4.15625 -18.6875 1.992188 -18.6875 Z M 1.992188 -18.6875 "/>
                </g>
            </g>
        </g>
    </g>
</svg>