<svg xmlns="http://www.w3.org/2000/svg"
    xmlns:xlink="http://www.w3.org/1999/xlink" width="500" zoomAndPan="magnify" viewBox="0 0 375 374.999991" height="500" preserveAspectRatio="xMidYMid meet" version="1.0">
    <path fill="rgb(0%, 0%, 0%)" d="M 187.5 0 C 84.847656 0 1.429688 83.417969 1.429688 186.070312 C 1.429688 223.191406 13.394531 257.1875 32.070312 286.257812 L 0.0898438 375.605469 L 99.609375 347.535156 C 126 361.960938 155.296875 372.136719 187.5 372.136719 C 290.152344 372.136719 373.570312 288.71875 373.570312 186.070312 C 373.570312 83.417969 290.152344 0 187.5 0 Z M 187.5 28.625 C 274.609375 28.625 344.941406 98.960938 344.941406 186.070312 C 344.941406 273.175781 274.609375 343.511719 187.5 343.511719 C 157.644531 343.511719 130.023438 335.125 106.09375 320.699219 L 100.839844 317.457031 L 45.710938 332.886719 L 63.601562 283.242188 L 59.242188 277.203125 C 40.902344 251.371094 30.058594 220.0625 30.058594 186.070312 C 30.058594 98.960938 100.390625 28.625 187.5 28.625 Z M 117.722656 85.878906 C 114.480469 85.878906 109.113281 87.21875 104.53125 92.585938 C 100.058594 97.84375 87.308594 110.703125 87.308594 136.867188 C 87.308594 162.921875 104.976562 188.191406 107.4375 191.773438 C 109.898438 195.351562 142.210938 248.910156 191.636719 271.945312 C 203.378906 277.425781 212.546875 280.667969 219.703125 283.128906 C 231.558594 287.152344 242.292969 286.59375 250.789062 285.253906 C 260.292969 283.6875 279.976562 272.394531 284.113281 259.980469 C 288.136719 247.570312 288.25 236.945312 286.90625 234.710938 C 285.789062 232.472656 282.433594 231.132812 277.515625 228.558594 C 272.59375 225.875 248.332031 213.015625 243.855469 211.339844 C 239.382812 209.4375 236.03125 208.65625 232.675781 213.910156 C 229.433594 219.277344 220.039062 231.242188 217.132812 234.710938 C 214.226562 238.289062 211.429688 238.734375 206.507812 236.050781 C 201.476562 233.367188 185.597656 227.777344 166.8125 209.664062 C 152.164062 195.574219 142.210938 178.242188 139.417969 172.875 C 136.511719 167.507812 139.082031 164.710938 141.542969 162.140625 C 143.777344 159.679688 146.460938 155.878906 148.921875 152.746094 C 151.382812 149.726562 152.164062 147.378906 153.84375 143.914062 C 155.519531 140.335938 154.738281 137.203125 153.507812 134.632812 C 152.164062 131.949219 142.324219 105.78125 138.300781 95.160156 C 134.273438 84.871094 130.136719 86.214844 127.117188 86.101562 C 124.320312 85.878906 120.96875 85.878906 117.722656 85.878906 Z M 117.722656 85.878906 " fill-opacity="1" fill-rule="nonzero"/>
</svg>