<svg xmlns="http://www.w3.org/2000/svg"
    xmlns:xlink="http://www.w3.org/1999/xlink" width="500" zoomAndPan="magnify" viewBox="0 0 375 374.999991" height="500" preserveAspectRatio="xMidYMid meet" version="1.0">
    <defs>
        <clipPath id="id1">
            <path d="M 125 33 L 264 33 L 264 342.84375 L 125 342.84375 Z M 125 33 " clip-rule="nonzero"/>
        </clipPath>
    </defs>
    <path fill="rgb(13.729858%, 12.159729%, 12.548828%)" d="M 94.625 277.871094 C 91.726562 277.871094 88.828125 276.765625 86.613281 274.550781 L 0.472656 188.355469 L 86.613281 102.160156 C 91.039062 97.734375 98.210938 97.734375 102.636719 102.160156 C 107.058594 106.585938 107.058594 113.761719 102.636719 118.191406 L 32.511719 188.355469 L 102.636719 258.523438 C 107.058594 262.945312 107.058594 270.125 102.636719 274.550781 C 100.425781 276.765625 97.523438 277.871094 94.625 277.871094 " fill-opacity="1" fill-rule="nonzero"/>
    <path fill="rgb(13.729858%, 12.159729%, 12.548828%)" d="M 280.425781 277.871094 C 277.527344 277.871094 274.625 276.765625 272.414062 274.550781 C 267.992188 270.125 267.992188 262.945312 272.414062 258.523438 L 342.539062 188.355469 L 272.414062 118.191406 C 267.992188 113.761719 267.992188 106.585938 272.414062 102.160156 C 276.839844 97.734375 284.011719 97.734375 288.4375 102.160156 L 374.578125 188.355469 L 288.4375 274.550781 C 286.222656 276.765625 283.324219 277.871094 280.425781 277.871094 " fill-opacity="1" fill-rule="nonzero"/>
    <g clip-path="url(#id1)">
        <path fill="rgb(13.729858%, 12.159729%, 12.548828%)" d="M 136.699219 342.863281 C 135.296875 342.863281 133.863281 342.601562 132.480469 342.042969 C 126.675781 339.710938 123.859375 333.109375 126.191406 327.300781 L 241.222656 40.957031 C 243.558594 35.148438 250.152344 32.332031 255.957031 34.664062 C 261.765625 37 264.578125 43.601562 262.242188 49.410156 L 147.214844 335.753906 C 145.4375 340.179688 141.191406 342.863281 136.699219 342.863281 " fill-opacity="1" fill-rule="nonzero"/>
    </g>
</svg>