<svg xmlns="http://www.w3.org/2000/svg"
    xmlns:xlink="http://www.w3.org/1999/xlink" width="500" zoomAndPan="magnify" viewBox="0 0 375 374.999991" height="500" preserveAspectRatio="xMidYMid meet" version="1.0">
    <path fill="rgb(0%, 0%, 0%)" d="M 104.167969 0 C 46.730469 0 0 46.730469 0 104.167969 L 0 270.832031 C 0 328.269531 46.730469 375 104.167969 375 L 270.832031 375 C 328.269531 375 375 328.269531 375 270.832031 L 375 104.167969 C 375 46.730469 328.269531 0 270.832031 0 Z M 104.167969 41.667969 L 270.832031 41.667969 C 305.292969 41.667969 333.332031 69.707031 333.332031 104.167969 L 333.332031 270.832031 C 333.332031 305.292969 305.292969 333.332031 270.832031 333.332031 L 104.167969 333.332031 C 69.707031 333.332031 41.667969 305.292969 41.667969 270.832031 L 41.667969 104.167969 C 41.667969 69.707031 69.707031 41.667969 104.167969 41.667969 Z M 291.667969 62.5 C 290.984375 62.5 290.304688 62.535156 289.625 62.601562 C 288.945312 62.667969 288.273438 62.765625 287.601562 62.898438 C 286.933594 63.035156 286.273438 63.199219 285.617188 63.398438 C 284.964844 63.59375 284.324219 63.824219 283.695312 64.085938 C 283.0625 64.347656 282.449219 64.636719 281.847656 64.960938 C 281.246094 65.28125 280.660156 65.632812 280.09375 66.011719 C 279.523438 66.390625 278.976562 66.796875 278.449219 67.230469 C 277.921875 67.660156 277.417969 68.121094 276.933594 68.601562 C 276.453125 69.085938 275.996094 69.589844 275.5625 70.117188 C 275.128906 70.644531 274.722656 71.191406 274.34375 71.757812 C 273.964844 72.328125 273.613281 72.910156 273.292969 73.511719 C 272.972656 74.113281 272.679688 74.730469 272.417969 75.359375 C 272.15625 75.992188 271.929688 76.632812 271.730469 77.285156 C 271.53125 77.9375 271.367188 78.601562 271.234375 79.269531 C 271.101562 79.9375 271 80.613281 270.933594 81.292969 C 270.867188 81.96875 270.832031 82.652344 270.832031 83.332031 C 270.832031 84.015625 270.867188 84.695312 270.933594 85.375 C 271 86.054688 271.101562 86.726562 271.234375 87.398438 C 271.367188 88.066406 271.53125 88.726562 271.730469 89.382812 C 271.929688 90.035156 272.15625 90.675781 272.417969 91.304688 C 272.679688 91.9375 272.972656 92.550781 273.292969 93.152344 C 273.613281 93.753906 273.964844 94.339844 274.34375 94.90625 C 274.722656 95.476562 275.128906 96.023438 275.5625 96.550781 C 275.996094 97.078125 276.453125 97.582031 276.933594 98.066406 C 277.417969 98.546875 277.921875 99.003906 278.449219 99.4375 C 278.976562 99.871094 279.523438 100.277344 280.09375 100.65625 C 280.660156 101.035156 281.246094 101.386719 281.847656 101.707031 C 282.449219 102.027344 283.0625 102.320312 283.695312 102.582031 C 284.324219 102.84375 284.964844 103.070312 285.617188 103.269531 C 286.273438 103.46875 286.933594 103.632812 287.601562 103.765625 C 288.269531 103.898438 288.945312 104 289.625 104.066406 C 290.304688 104.132812 290.984375 104.167969 291.667969 104.167969 C 292.347656 104.167969 293.03125 104.132812 293.707031 104.066406 C 294.386719 104 295.0625 103.898438 295.730469 103.765625 C 296.398438 103.632812 297.0625 103.46875 297.714844 103.269531 C 298.367188 103.070312 299.007812 102.84375 299.640625 102.582031 C 300.269531 102.320312 300.886719 102.027344 301.488281 101.707031 C 302.089844 101.386719 302.671875 101.035156 303.242188 100.65625 C 303.808594 100.277344 304.355469 99.871094 304.882812 99.4375 C 305.410156 99.003906 305.914062 98.546875 306.398438 98.066406 C 306.878906 97.582031 307.339844 97.078125 307.769531 96.550781 C 308.203125 96.023438 308.609375 95.476562 308.988281 94.90625 C 309.367188 94.339844 309.71875 93.753906 310.039062 93.152344 C 310.363281 92.550781 310.652344 91.9375 310.914062 91.304688 C 311.175781 90.675781 311.40625 90.035156 311.601562 89.382812 C 311.800781 88.726562 311.964844 88.066406 312.101562 87.398438 C 312.234375 86.726562 312.332031 86.054688 312.398438 85.375 C 312.464844 84.695312 312.5 84.015625 312.5 83.332031 C 312.5 82.652344 312.464844 81.96875 312.398438 81.292969 C 312.332031 80.613281 312.234375 79.9375 312.101562 79.269531 C 311.964844 78.601562 311.800781 77.9375 311.601562 77.285156 C 311.40625 76.632812 311.175781 75.992188 310.914062 75.359375 C 310.652344 74.730469 310.363281 74.113281 310.039062 73.511719 C 309.71875 72.910156 309.367188 72.328125 308.988281 71.757812 C 308.609375 71.191406 308.203125 70.644531 307.769531 70.117188 C 307.339844 69.589844 306.878906 69.085938 306.398438 68.601562 C 305.914062 68.121094 305.410156 67.660156 304.882812 67.230469 C 304.355469 66.796875 303.808594 66.390625 303.242188 66.011719 C 302.671875 65.632812 302.089844 65.28125 301.488281 64.960938 C 300.886719 64.636719 300.269531 64.347656 299.640625 64.085938 C 299.007812 63.824219 298.367188 63.59375 297.714844 63.398438 C 297.0625 63.199219 296.398438 63.035156 295.730469 62.898438 C 295.0625 62.765625 294.386719 62.667969 293.707031 62.601562 C 293.03125 62.535156 292.347656 62.5 291.667969 62.5 Z M 187.5 83.332031 C 130.0625 83.332031 83.332031 130.0625 83.332031 187.5 C 83.332031 244.9375 130.0625 291.667969 187.5 291.667969 C 244.9375 291.667969 291.667969 244.9375 291.667969 187.5 C 291.667969 130.0625 244.9375 83.332031 187.5 83.332031 Z M 187.5 125 C 221.957031 125 250 153.042969 250 187.5 C 250 221.957031 221.957031 250 187.5 250 C 153.042969 250 125 221.957031 125 187.5 C 125 153.042969 153.042969 125 187.5 125 Z M 187.5 125 " fill-opacity="1" fill-rule="nonzero"/>
</svg>